<?xml version="1.0" encoding="UTF-8"?>
<svg version="1.1" xmlns="http://www.w3.org/2000/svg" width="500" height="279">
<path d="M0 0 C5.08542233 0.73688588 7.44804051 3.54442564 10.5625 7.4375 C19.06701702 19.62730773 27.10633453 39.99858399 26.31640625 55.22265625 C26.46533597 60.02203661 27.91472151 62.56665026 30.375 66.5625 C33.63263529 72.1951427 35.4375 76.4831066 35.4375 83.125 C36.06140625 83.23199219 36.6853125 83.33898437 37.328125 83.44921875 C39.4375 84.125 39.4375 84.125 41.1875 86.9375 C42.4375 90.125 42.4375 90.125 42.4375 94.125 C43.035625 94.393125 43.63375 94.66125 44.25 94.9375 C47.96508321 96.95425946 49.28628918 98.8427398 51.3125 102.625 C53.18959652 105.99669035 54.87441625 107.46775175 58.4375 109.125 C59.984375 109.99125 59.984375 109.99125 61.5625 110.875 C67.21231642 113.25909836 74.74061596 112.08101169 80.4375 110.125 C81.7054791 108.69445948 82.96776768 107.25560456 84.140625 105.74609375 C86.05217137 103.35666079 88.2756822 101.2868178 90.4375 99.125 C91.4275 97.64 91.4275 97.64 92.4375 96.125 C95.0625 95.9375 95.0625 95.9375 97.4375 96.125 C97.705625 95.279375 97.97375 94.43375 98.25 93.5625 C101.56698857 83.96069097 101.56698857 83.96069097 104 81.625 C106.26826436 79.25811545 106.56386073 76.23733988 107.4375 73.125 C108.42481742 71.78224831 109.42344743 70.44767727 110.4375 69.125 C110.540625 68.3825 110.64375 67.64 110.75 66.875 C111.65836154 63.24155384 113.65335288 61.08733761 115.9453125 58.17578125 C118.04610235 55.28857007 119.17735546 52.46438303 120.4375 49.125 C120.829375 48.155625 121.22125 47.18625 121.625 46.1875 C121.893125 45.506875 122.16125 44.82625 122.4375 44.125 C123.0975 44.125 123.7575 44.125 124.4375 44.125 C124.48648437 43.48691406 124.53546875 42.84882812 124.5859375 42.19140625 C124.66070312 41.36511719 124.73546875 40.53882813 124.8125 39.6875 C124.88210938 38.86378906 124.95171875 38.04007813 125.0234375 37.19140625 C125.16007812 36.50949219 125.29671875 35.82757813 125.4375 35.125 C126.0975 34.795 126.7575 34.465 127.4375 34.125 C128.27504364 32.14591496 128.27504364 32.14591496 128.9375 29.8125 C131.36573955 21.8283428 131.36573955 21.8283428 134.4375 19.8125 C136.79575516 18.15084563 136.79575516 18.15084563 137.375 14.5625 C138.4375 11.125 138.4375 11.125 141.0625 9.6875 C141.84625 9.501875 142.63 9.31625 143.4375 9.125 C143.1075 7.805 142.7775 6.485 142.4375 5.125 C144.4175 5.125 146.3975 5.125 148.4375 5.125 C148.7675 3.475 149.0975 1.825 149.4375 0.125 C150.4275 0.125 151.4175 0.125 152.4375 0.125 C152.7675 3.755 153.0975 7.385 153.4375 11.125 C152.4475 11.125 151.4575 11.125 150.4375 11.125 C150.31375 12.176875 150.19 13.22875 150.0625 14.3125 C149.52609218 17.58458771 148.79869965 20.13036076 147.4375 23.125 C148.4275 23.455 149.4175 23.785 150.4375 24.125 C150.4375 25.115 150.4375 26.105 150.4375 27.125 C148.4575 27.455 146.4775 27.785 144.4375 28.125 C145.0975 29.115 145.7575 30.105 146.4375 31.125 C150.84251701 30.14827782 154.50340361 28.29096318 158.4375 26.125 C159.06398438 25.78726563 159.69046875 25.44953125 160.3359375 25.1015625 C165.19150568 22.11188952 167.08645752 18.52339907 169.296875 13.33203125 C170.4375 11.125 170.4375 11.125 173.4375 9.125 C179.3834502 8.42547645 183.66707408 9.65986779 188.4375 13.125 C196.204495 20.59205007 199.54974495 30.1180067 199.9375 40.75 C199.76156798 46.82698532 198.16526324 51.7303611 195.4375 57.125 C200.51486949 54.18910608 204.51243094 51.38177364 207.9375 46.5625 C210.93025896 42.40047707 213.82053485 40.53761826 218.37109375 38.3046875 C220.49928012 37.08973044 221.63704772 35.98583382 223.125 34.0625 C225.61399241 30.90080694 228.03360244 29.22527722 231.4375 27.125 C232.04207031 26.65191406 232.64664062 26.17882812 233.26953125 25.69140625 C236.69889952 23.21361044 240.4856156 21.53074107 244.28125 19.68359375 C246.23944795 18.71661233 248.18133614 17.71479625 250.09375 16.66015625 C257.1264661 12.82109445 263.28718258 11.01824869 271.1875 13.125 C278.60271981 17.68821219 283.04242475 24.81437745 285.4375 33.125 C286.64690009 41.17069326 286.84617767 49.11832471 285.4375 57.125 C285.34760698 58.56140849 285.27906623 59.99923943 285.2265625 61.4375 C285.19820313 62.20320313 285.16984375 62.96890625 285.140625 63.7578125 C285.08854953 65.33569924 285.04427545 66.91386279 285.0078125 68.4921875 C284.80679578 73.46735128 283.89971204 76.69818833 281.4375 81.125 C280.67171945 87.7982305 282.37982658 92.2280584 285.4375 98.125 C290.8943803 97.74428742 292.88322558 96.19941214 296.4375 92.125 C296.9840625 91.44050781 297.530625 90.75601563 298.09375 90.05078125 C301.79366873 85.53136297 303.46922679 83.81898526 309.4375 83.125 C310.61778284 80.97402067 310.61778284 80.97402067 311.4375 78.125 C314.46946421 71.20324757 319.12894649 68.01892394 325.421875 64.07421875 C330.08023057 61.06318322 334.82880987 57.65230148 337.83984375 52.921875 C339.4375 51.125 339.4375 51.125 342.125 50.875 C342.888125 50.9575 343.65125 51.04 344.4375 51.125 C344.76508333 56.38865222 344.94176729 61.6399704 344.8515625 66.9140625 C344.83150146 68.23591553 344.83150146 68.23591553 344.81103516 69.58447266 C344.04254677 74.81119827 341.09415858 77.59402035 337.4375 81.125 C336.40582243 82.40021548 335.3931537 83.69092415 334.39453125 84.9921875 C324.53935059 97.82398119 324.53935059 97.82398119 317.4375 101.91015625 C312.75408596 104.75496439 309.21275924 108.54466386 306.8125 113.4375 C305.09424659 116.7959044 303.87568334 116.86712805 300.4375 118.125 C299.09854368 119.78715268 297.76619858 121.45463607 296.4375 123.125 C291.99542452 127.9287712 288.12604394 129.58249424 281.5625 129.875 C273.59056537 129.49944848 268.42349444 126.92246768 262.703125 121.47265625 C259.21783716 117.36756207 257.09845911 112.54592308 255 107.625 C254.59249512 106.69989624 254.59249512 106.69989624 254.17675781 105.75610352 C252.51440962 101.57429335 252.48936156 98.63729349 253.25732422 94.25610352 C253.46696905 91.77644269 253.07127583 89.85334436 252.50390625 87.43359375 C251.11585002 81.33477072 251.25532742 75.41410055 251.375 69.1875 C251.50283561 61.08651022 251.35174946 53.18150765 250.4375 45.125 C243.96112593 48.58938392 237.60837715 52.14220279 231.4375 56.125 C230.70789063 56.56328125 229.97828125 57.0015625 229.2265625 57.453125 C224.05223158 60.66721451 220.33072776 64.24056027 216.4140625 68.890625 C213.90814066 71.72340621 211.12328648 74.07799161 208.234375 76.5078125 C206.20351922 78.24615606 206.20351922 78.24615606 204 81.1875 C201.62576162 83.9091879 199.83970822 85.21985152 196.8125 87.0625 C192.25976951 89.91454109 191.24523511 92.17751444 189.4375 97.125 C187.375 98.3125 187.375 98.3125 185.4375 99.125 C184.16945434 101.1585948 184.16945434 101.1585948 183.4375 103.125 C181.26875748 102.61896008 179.43782373 102.12516187 177.4375 101.125 C177.169375 102.383125 176.90125 103.64125 176.625 104.9375 C175.2427935 110.39866554 175.2427935 110.39866554 172.4375 112.125 C171.1175 112.125 169.7975 112.125 168.4375 112.125 C168.39625 112.7025 168.355 113.28 168.3125 113.875 C167.0075113 117.23068523 164.41285924 118.1795728 161.4375 120.125 C158.76073031 122.88178183 156.56784453 125.9294832 154.4375 129.125 C149.40537714 128.6457502 146.27051661 127.45805792 142.4375 124.125 C136.68336554 115.17412417 136.88270773 105.34441132 138.6328125 95.19140625 C140.01987807 89.90574376 142.60588731 85.95661269 146.4375 82.125 C146.80875 81.0421875 146.80875 81.0421875 147.1875 79.9375 C148.65151581 76.64346443 150.59003777 74.43510364 152.984375 71.7734375 C154.55576555 70.0554721 154.55576555 70.0554721 156.125 67.6875 C156.558125 67.171875 156.99125 66.65625 157.4375 66.125 C158.4275 66.125 159.4175 66.125 160.4375 66.125 C160.55996094 65.26648438 160.68242187 64.40796875 160.80859375 63.5234375 C161.43877116 60.11813102 162.37312279 57.02157899 163.5 53.75 C163.86222656 52.69039062 164.22445313 51.63078125 164.59765625 50.5390625 C164.87480469 49.74242187 165.15195312 48.94578125 165.4375 48.125 C162.45216494 48.93944968 162.45216494 48.93944968 159.4375 50.125 C159.1075 50.95 158.7775 51.775 158.4375 52.625 C158.1075 53.45 157.7775 54.275 157.4375 55.125 C155.44186155 55.80461136 153.44103642 56.4690379 151.4375 57.125 C148.51337276 58.82770456 148.51337276 58.82770456 145.75 60.875 C144.35201172 61.85726562 144.35201172 61.85726562 142.92578125 62.859375 C140.1568669 65.3805215 138.89844132 67.70473605 137.4375 71.125 C138.4275 71.455 139.4175 71.785 140.4375 72.125 C140.4375 73.115 140.4375 74.105 140.4375 75.125 C138.1275 75.125 135.8175 75.125 133.4375 75.125 C133.37691406 75.74246094 133.31632812 76.35992187 133.25390625 76.99609375 C133.07855091 78.76853156 132.89996179 80.54065137 132.71875 82.3125 C132.53970282 84.10297182 132.37180083 85.89461889 132.21875 87.6875 C132.1465625 88.47125 132.074375 89.255 132 90.0625 C131.93941406 90.77277344 131.87882812 91.48304687 131.81640625 92.21484375 C131.4375 94.125 131.4375 94.125 129.4375 97.125 C128.7775 97.125 128.1175 97.125 127.4375 97.125 C127.685 98.011875 127.9325 98.89875 128.1875 99.8125 C128.4375 103.125 128.4375 103.125 126.5625 105.8125 C125.86125 106.575625 125.16 107.33875 124.4375 108.125 C124.1075 109.115 123.7775 110.105 123.4375 111.125 C121.7875 111.455 120.1375 111.785 118.4375 112.125 C118.7778125 112.9603125 118.7778125 112.9603125 119.125 113.8125 C119.56404391 117.06142494 118.21671331 118.45618003 116.4375 121.125 C115.27938612 124.07229537 115.27938612 124.07229537 115.4375 127.125 C114.11482273 128.13905257 112.78025169 129.13768258 111.4375 130.125 C110.75481862 131.45020503 110.0867959 132.78312182 109.4375 134.125 C107.9525 135.115 107.9525 135.115 106.4375 136.125 C106.07869137 138.85055346 106.07869137 138.85055346 106.125 141.9375 C105.680672 148.79167084 105.680672 148.79167084 103 151.375 C98.87530207 153.4011674 96.29367913 153.40660236 91.8046875 152.91015625 C88.53841573 153.20660006 87.71541626 154.83036509 85.4375 157.125 C82.16015625 158.390625 82.16015625 158.390625 78.5 159.375 C77.29472656 159.71015625 76.08945313 160.0453125 74.84765625 160.390625 C68.92003344 161.66713484 66.53835681 161.23527854 61.4375 158.125 C58.24354974 157.41098768 58.24354974 157.41098768 55.4375 157.125 C55.4375 156.465 55.4375 155.805 55.4375 155.125 C54.24125 155.063125 53.045 155.00125 51.8125 154.9375 C46.99627633 154.36637259 44.9319774 152.37567665 41.4375 149.125 C40.4475 148.795 39.4575 148.465 38.4375 148.125 C38.4375 147.465 38.4375 146.805 38.4375 146.125 C34.4775 145.135 34.4775 145.135 30.4375 144.125 C30.4375 142.805 30.4375 141.485 30.4375 140.125 C29.756875 140.104375 29.07625 140.08375 28.375 140.0625 C23.33525923 138.4540721 19.86610604 134.59471437 17.2421875 130.05859375 C16.59191407 128.70940439 15.95962309 127.35136587 15.34765625 125.984375 C14.08153031 123.39778295 12.26048597 121.33862582 10.4375 119.125 C10.4375 118.465 10.4375 117.805 10.4375 117.125 C9.54224609 116.80595703 9.54224609 116.80595703 8.62890625 116.48046875 C5.63685672 114.62977145 4.86322116 112.60046604 3.375 109.4375 C2.61123047 107.83068359 2.61123047 107.83068359 1.83203125 106.19140625 C0.31425026 102.85398866 -1.17431802 99.51833372 -2.5625 96.125 C-2.6346875 96.73085937 -2.706875 97.33671875 -2.78125 97.9609375 C-3.85728154 100.94154486 -5.26574762 101.34299186 -8.0625 102.75 C-14.34132621 106.27337011 -20.2940382 111.5880764 -23.5625 118.125 C-25.73124252 117.61896008 -27.56217627 117.12516187 -29.5625 116.125 C-29.789375 116.66125 -30.01625 117.1975 -30.25 117.75 C-33.973862 124.48841696 -39.47293246 128.62590985 -45.5625 133.125 C-46.614375 133.94484375 -46.614375 133.94484375 -47.6875 134.78125 C-49.5625 136.125 -49.5625 136.125 -52 136.9375 C-54.64086371 138.16131489 -55.48305018 139.0309189 -57.25 141.25 C-58.013125 142.19875 -58.77625 143.1475 -59.5625 144.125 C-60.2225 144.125 -60.8825 144.125 -61.5625 144.125 C-61.81 144.723125 -62.0575 145.32125 -62.3125 145.9375 C-63.79341327 148.52909822 -64.98550536 149.62175313 -67.5625 151.125 C-69.56010305 151.47240923 -71.56037771 151.80466043 -73.5625 152.125 C-75.57776169 153.09387581 -77.58083966 154.0891321 -79.5625 155.125 C-80.2225 155.125 -80.8825 155.125 -81.5625 155.125 C-81.789375 155.74375 -82.01625 156.3625 -82.25 157 C-83.98945928 159.81626741 -85.37476664 160.36601587 -88.5625 161.125 C-90.875 160.25 -90.875 160.25 -92.5625 159.125 C-92.748125 160.5171875 -92.748125 160.5171875 -92.9375 161.9375 C-94.5625 165.125 -94.5625 165.125 -96.67578125 166.19140625 C-101.61074876 167.7415402 -106.38644066 168.83543952 -111.5625 168.125 C-112.284375 167.444375 -113.00625 166.76375 -113.75 166.0625 C-117.24197509 163.65691716 -118.07160469 164.18539638 -122.125 164.875 C-128.93815891 165.70134848 -132.71815155 163.52544146 -138.1328125 159.53125 C-141.17460749 156.51879709 -142.10401533 154.07402386 -142.99609375 149.96484375 C-143.27646484 149.05412109 -143.27646484 149.05412109 -143.5625 148.125 C-145.99135788 146.73641128 -145.99135788 146.73641128 -148.5625 146.125 C-154.00470378 140.38900116 -155.71398271 129.57552985 -156.125 121.875 C-155.90278126 116.59730501 -154.64971153 111.5441935 -153.375 106.4375 C-153.17914307 105.64118164 -152.98328613 104.84486328 -152.78149414 104.02441406 C-151.29923961 98.55899106 -149.23417335 93.51368525 -145.5625 89.125 C-144.9025 89.125 -144.2425 89.125 -143.5625 89.125 C-143.52125 88.2175 -143.48 87.31 -143.4375 86.375 C-142.35595322 78.99945181 -138.60257889 71.34542877 -132.75 66.6875 C-132.16605469 66.29691406 -131.58210938 65.90632813 -130.98046875 65.50390625 C-129.00763449 63.58542004 -129.06806016 61.80172547 -128.5625 59.125 C-127.109375 56.484375 -127.109375 56.484375 -125.3125 53.875 C-124.72984375 53.00359375 -124.1471875 52.1321875 -123.546875 51.234375 C-121.18363898 48.72227372 -119.85107855 48.74832535 -116.5625 48.125 C-115.41288317 46.30057666 -115.41288317 46.30057666 -114.5625 44.125 C-106.64169703 34.57844749 -94.92247338 24.35886159 -82.56640625 21.671875 C-80.27383522 21.19149272 -80.27383522 21.19149272 -77.875 18.9375 C-74.70241077 16.45087601 -72.48710159 16.75475457 -68.5625 17.125 C-67.9025 17.455 -67.2425 17.785 -66.5625 18.125 C-65.510625 17.3825 -65.510625 17.3825 -64.4375 16.625 C-60.5301175 14.58636565 -57.75379179 15.1006517 -53.5625 16.125 C-52.675625 16.516875 -51.78875 16.90875 -50.875 17.3125 C-48.52627818 18.43556841 -48.52627818 18.43556841 -46.1875 17.0625 C-43.5625 16.125 -43.5625 16.125 -40.0625 17.1875 C-34.70437886 19.88985675 -31.67345284 23.10476552 -29.75 28.8125 C-26.67837266 40.9014193 -26.67837266 40.9014193 -29.88671875 46.390625 C-33.49302275 50.76681413 -37.33351632 53.9383341 -42.5625 56.125 C-47.13626801 56.03352464 -49.73414561 54.43981893 -53.5625 52.125 C-58.86722366 49.54564764 -58.86722366 49.54564764 -64.55859375 49.640625 C-66.24193232 50.43704325 -67.90342541 51.27919727 -69.5625 52.125 C-72.01659831 51.85969207 -73.36863829 51.22193085 -75.5625 50.125 C-75.7275 50.8675 -75.8925 51.61 -76.0625 52.375 C-77.88146823 55.70977509 -79.75901903 56.32143628 -83.13671875 57.828125 C-88.90205063 60.91039583 -94.18246912 65.5839144 -98.640625 70.34375 C-100.5625 72.125 -100.5625 72.125 -102.52099609 72.48803711 C-105.31018911 73.35828401 -105.77164755 74.56194383 -107.1484375 77.09765625 C-107.60476562 77.91556641 -108.06109375 78.73347656 -108.53125 79.57617188 C-108.9953125 80.43791016 -109.459375 81.29964844 -109.9375 82.1875 C-117.72366383 96.42914147 -117.72366383 96.42914147 -123.21435547 101.71533203 C-125.04436333 103.62885347 -124.95698258 104.95534032 -125.0625 107.5625 C-125.23262526 111.75183462 -125.23262526 111.75183462 -127.05078125 113.80859375 C-129.46374974 117.50598475 -129.13701496 121.42428703 -129.25 125.75 C-129.28416016 126.62140625 -129.31832031 127.4928125 -129.35351562 128.390625 C-129.46395711 131.30267403 -129.5625 134.21074043 -129.5625 137.125 C-122.19844569 138.67888302 -115.58792069 137.83861523 -108.3125 136.375 C-107.46139648 136.20581055 -106.61029297 136.03662109 -105.73339844 135.86230469 C-96.73062539 134.11760149 -96.73062539 134.11760149 -89.75 128.75 C-86.9219424 125.35633088 -83.82947497 124.15363222 -79.875 122.30859375 C-77.44901976 121.21637466 -77.44901976 121.21637466 -75.5625 119.125 C-73.38386657 116.94636657 -71.52632775 116.05699687 -68.75 114.75 C-64.56950208 112.7671794 -61.51440321 110.50119761 -58.12890625 107.390625 C-55.86798994 105.56384973 -53.31015417 105.04088472 -50.5625 104.125 C-47.95444298 102.45601425 -45.4567728 100.67307872 -42.953125 98.8515625 C-41.12626819 97.53216591 -39.23170274 96.30604784 -37.3125 95.125 C-34.34411864 92.9661772 -32.37810729 90.62733843 -30.078125 87.80078125 C-27.89832837 85.39064529 -25.31711674 83.815333 -22.5625 82.125 C-21.9025 81.465 -21.2425 80.805 -20.5625 80.125 C-19.758125 80.0425 -18.95375 79.96 -18.125 79.875 C-15.30515278 79.33608765 -15.30515278 79.33608765 -13.6875 76.5 C-12.11807626 71.79172877 -13.06067575 68.35532998 -14.125 63.625 C-14.5625 61.125 -14.5625 61.125 -14.5 57.4375 C-14.18094149 54.04413072 -14.18094149 54.04413072 -16.5625 52.125 C-19.14875881 43.84897182 -17.73330117 34.99871215 -14.5625 27.125 C-13.8833549 25.90002347 -13.17668515 24.68971041 -12.4375 23.5 C-10.76004629 20.48058331 -10.30014321 19.30282158 -10 16.0625 C-9.55617964 12.06811679 -8.5478149 9.57772156 -6.5625 6.125 C-5.5725 6.125 -4.5825 6.125 -3.5625 6.125 C-3.748125 5.320625 -3.93375 4.51625 -4.125 3.6875 C-4.3415625 2.4190625 -4.3415625 2.4190625 -4.5625 1.125 C-3.5625 0.125 -3.5625 0.125 0 0 Z " fill="#94BD10" transform="translate(155.5625,6.875)"/>
<path d="M0 0 C7.08657951 2.07446041 11.31916579 6.77519684 15 13 C19.18149619 21.83171467 20.92699524 31.52961513 18.09375 41.04296875 C17.1539422 43.42269637 16.15407164 45.71761726 15 48 C20.07736949 45.06410608 24.07493094 42.25677364 27.5 37.4375 C30.49275896 33.27547707 33.38303485 31.41261826 37.93359375 29.1796875 C40.06178012 27.96473044 41.19954772 26.86083382 42.6875 24.9375 C45.17649241 21.77580694 47.59610244 20.10027722 51 18 C51.60457031 17.52691406 52.20914063 17.05382812 52.83203125 16.56640625 C56.26139952 14.08861044 60.0481156 12.40574107 63.84375 10.55859375 C65.80194795 9.59161233 67.74383614 8.58979625 69.65625 7.53515625 C76.6889661 3.69609445 82.84968258 1.89324869 90.75 4 C98.16521981 8.56321219 102.60492475 15.68937745 105 24 C106.20940009 32.04569326 106.40867767 39.99332471 105 48 C104.91010698 49.43640849 104.84156623 50.87423943 104.7890625 52.3125 C104.76070312 53.07820313 104.73234375 53.84390625 104.703125 54.6328125 C104.65104953 56.21069924 104.60677545 57.78886279 104.5703125 59.3671875 C104.36929578 64.34235128 103.46221204 67.57318833 101 72 C100.23421945 78.6732305 101.94232658 83.1030584 105 89 C110.4568803 88.61928742 112.44572558 87.07441214 116 83 C116.5465625 82.31550781 117.093125 81.63101563 117.65625 80.92578125 C121.35616873 76.40636297 123.03172679 74.69398526 129 74 C130.18028284 71.84902067 130.18028284 71.84902067 131 69 C134.03196421 62.07824757 138.69144649 58.89392394 144.984375 54.94921875 C149.64273057 51.93818322 154.39130987 48.52730148 157.40234375 43.796875 C159 42 159 42 161.6875 41.75 C162.450625 41.8325 163.21375 41.915 164 42 C164.32758333 47.26365222 164.50426729 52.5149704 164.4140625 57.7890625 C164.39400146 59.11091553 164.39400146 59.11091553 164.37353516 60.45947266 C163.60504677 65.68619827 160.65665858 68.46902035 157 72 C155.96832243 73.27521548 154.9556537 74.56592415 153.95703125 75.8671875 C144.10185059 88.69898119 144.10185059 88.69898119 137 92.78515625 C132.31658596 95.62996439 128.77525924 99.41966386 126.375 104.3125 C124.65674659 107.6709044 123.43818334 107.74212805 120 109 C118.66104368 110.66215268 117.32869858 112.32963607 116 114 C111.55792452 118.8037712 107.68854394 120.45749424 101.125 120.75 C93.15306537 120.37444848 87.98599444 117.79746768 82.265625 112.34765625 C78.78033716 108.24256207 76.66095911 103.42092308 74.5625 98.5 C74.15499512 97.57489624 74.15499512 97.57489624 73.73925781 96.63110352 C72.07690962 92.44929335 72.05186156 89.51229349 72.81982422 85.13110352 C73.02946905 82.65144269 72.63377583 80.72834436 72.06640625 78.30859375 C70.67835002 72.20977072 70.81782742 66.28910055 70.9375 60.0625 C71.06533561 51.96151022 70.91424946 44.05650765 70 36 C63.52362593 39.46438392 57.17087715 43.01720279 51 47 C50.27039063 47.43828125 49.54078125 47.8765625 48.7890625 48.328125 C43.61473158 51.54221451 39.89322776 55.11556027 35.9765625 59.765625 C33.47064066 62.59840621 30.68578648 64.95299161 27.796875 67.3828125 C25.76601922 69.12115606 25.76601922 69.12115606 23.5625 72.0625 C21.18826162 74.7841879 19.40220822 76.09485152 16.375 77.9375 C11.82226951 80.78954109 10.80773511 83.05251444 9 88 C6.9375 89.1875 6.9375 89.1875 5 90 C3.73195434 92.0335948 3.73195434 92.0335948 3 94 C0.83125748 93.49396008 -0.99967627 93.00016187 -3 92 C-3.268125 93.258125 -3.53625 94.51625 -3.8125 95.8125 C-5.1947065 101.27366554 -5.1947065 101.27366554 -8 103 C-9.32 103 -10.64 103 -12 103 C-12.04125 103.5775 -12.0825 104.155 -12.125 104.75 C-13.4299887 108.10568523 -16.02464076 109.0545728 -19 111 C-21.67676969 113.75678183 -23.86965547 116.8044832 -26 120 C-31.03212286 119.5207502 -34.16698339 118.33305792 -38 115 C-43.75413446 106.04912417 -43.55479227 96.21941132 -41.8046875 86.06640625 C-40.41762193 80.78074376 -37.83161269 76.83161269 -34 73 C-33.7525 72.278125 -33.505 71.55625 -33.25 70.8125 C-31.78598419 67.51846443 -29.84746223 65.31010364 -27.453125 62.6484375 C-25.88173445 60.9304721 -25.88173445 60.9304721 -24.3125 58.5625 C-23.6628125 57.7890625 -23.6628125 57.7890625 -23 57 C-22.01 57 -21.02 57 -20 57 C-19.87753906 56.14148438 -19.75507813 55.28296875 -19.62890625 54.3984375 C-18.99872884 50.99313102 -18.06437721 47.89657899 -16.9375 44.625 C-16.57527344 43.56539062 -16.21304687 42.50578125 -15.83984375 41.4140625 C-15.56269531 40.61742187 -15.28554688 39.82078125 -15 39 C-17.96970028 39.80918411 -17.96970028 39.80918411 -21 41 C-22.43923199 43.50995496 -22.43923199 43.50995496 -23 46 C-23.928125 46 -24.85625 46 -25.8125 46 C-30.99237019 46.65541215 -34.52876836 50.17769182 -38.44921875 53.3828125 C-41 55 -41 55 -43.33203125 54.7421875 C-43.88246094 54.49726562 -44.43289063 54.25234375 -45 54 C-44.67 53.01 -44.34 52.02 -44 51 C-43.34 51 -42.68 51 -42 51 C-42 48.69 -42 46.38 -42 44 C-41.34 44 -40.68 44 -40 44 C-39.67 41.03 -39.34 38.06 -39 35 C-37.515 34.505 -37.515 34.505 -36 34 C-36.33 32.02 -36.66 30.04 -37 28 C-32.45835886 24.3884553 -28.00288433 20.95041896 -23 18 C-16.90871519 14.29769958 -13.87578798 10.77263562 -11.10546875 4.171875 C-8.61843537 -0.71431073 -4.92382631 -0.48431078 0 0 Z " fill="#0D6C32" transform="translate(336,16)"/>
<path d="M0 0 C0.886875 0.391875 1.77375 0.78375 2.6875 1.1875 C5.03622182 2.31056841 5.03622182 2.31056841 7.375 0.9375 C10 0 10 0 13.5 1.0625 C18.85812114 3.76485675 21.88904716 6.97976552 23.8125 12.6875 C26.88412734 24.7764193 26.88412734 24.7764193 23.67578125 30.265625 C20.06947725 34.64181413 16.22898368 37.8133341 11 40 C6.42623199 39.90852464 3.82835439 38.31481893 0 36 C-5.30472366 33.42064764 -5.30472366 33.42064764 -10.99609375 33.515625 C-12.67943232 34.31204325 -14.34092541 35.15419727 -16 36 C-18.45409831 35.73469207 -19.80613829 35.09693085 -22 34 C-22.165 34.7425 -22.33 35.485 -22.5 36.25 C-24.31896823 39.58477509 -26.19651903 40.19643628 -29.57421875 41.703125 C-35.33955063 44.78539583 -40.61996912 49.4589144 -45.078125 54.21875 C-47 56 -47 56 -48.95849609 56.36303711 C-51.74768911 57.23328401 -52.20914755 58.43694383 -53.5859375 60.97265625 C-54.04226562 61.79056641 -54.49859375 62.60847656 -54.96875 63.45117188 C-55.4328125 64.31291016 -55.896875 65.17464844 -56.375 66.0625 C-64.16116383 80.30414147 -64.16116383 80.30414147 -69.65185547 85.59033203 C-71.48186333 87.50385347 -71.39448258 88.83034032 -71.5 91.4375 C-71.67012526 95.62683462 -71.67012526 95.62683462 -73.48828125 97.68359375 C-75.90124974 101.38098475 -75.57451496 105.29928703 -75.6875 109.625 C-75.72166016 110.49640625 -75.75582031 111.3678125 -75.79101562 112.265625 C-75.90145711 115.17767403 -76 118.08574043 -76 121 C-68.63594569 122.55388302 -62.02542069 121.71361523 -54.75 120.25 C-53.89889648 120.08081055 -53.04779297 119.91162109 -52.17089844 119.73730469 C-43.16812539 117.99260149 -43.16812539 117.99260149 -36.1875 112.625 C-33.3594424 109.23133088 -30.26697497 108.02863222 -26.3125 106.18359375 C-23.88651976 105.09137466 -23.88651976 105.09137466 -22 103 C-19.82136657 100.82136657 -17.96382775 99.93199687 -15.1875 98.625 C-11.00700208 96.6421794 -7.95190321 94.37619761 -4.56640625 91.265625 C-2.30548994 89.43884973 0.25234583 88.91588472 3 88 C5.60805702 86.33101425 8.1057272 84.54807872 10.609375 82.7265625 C12.43623181 81.40716591 14.33079726 80.18104784 16.25 79 C19.21838136 76.8411772 21.18439271 74.50233843 23.484375 71.67578125 C25.66417163 69.26564529 28.24538326 67.690333 31 66 C31.66 65.34 32.32 64.68 33 64 C34.2375 63.7834375 34.2375 63.7834375 35.5 63.5625 C38.34936529 63.2234444 38.34936529 63.2234444 40 60 C40.66 60 41.32 60 42 60 C42.165 59.29875 42.33 58.5975 42.5 57.875 C45.08400504 52.92232368 49.64451145 49.81930037 54.875 48 C55.57625 48 56.2775 48 57 48 C59 50 59 50 59.25 52.5 C59 55 59 55 57 57 C56.85792365 60.29439534 57.00600936 63.54138406 57.125 66.8359375 C57.00208774 69.94715405 56.7536346 71.47338173 55 74 C52 76 52 76 49 76 C49.15275391 77.36898437 49.15275391 77.36898437 49.30859375 78.765625 C49 82 49 82 46.91015625 83.984375 C45.97042969 84.56703125 45.03070313 85.1496875 44.0625 85.75 C38.75992411 89.27140175 35.01058691 93.11971539 31.0703125 98.09375 C29 100 29 100 26.2421875 100.28125 C25.50226563 100.1884375 24.76234375 100.095625 24 100 C23.773125 100.53625 23.54625 101.0725 23.3125 101.625 C19.588638 108.36341696 14.08956754 112.50090985 8 117 C7.29875 117.5465625 6.5975 118.093125 5.875 118.65625 C4 120 4 120 1.5625 120.8125 C-1.07836371 122.03631489 -1.92055018 122.9059189 -3.6875 125.125 C-4.450625 126.07375 -5.21375 127.0225 -6 128 C-6.66 128 -7.32 128 -8 128 C-8.2475 128.598125 -8.495 129.19625 -8.75 129.8125 C-10.23091327 132.40409822 -11.42300536 133.49675313 -14 135 C-15.99760305 135.34740923 -17.99787771 135.67966043 -20 136 C-22.01526169 136.96887581 -24.01833966 137.9641321 -26 139 C-26.66 139 -27.32 139 -28 139 C-28.226875 139.61875 -28.45375 140.2375 -28.6875 140.875 C-30.42695928 143.69126741 -31.81226664 144.24101587 -35 145 C-37.3125 144.125 -37.3125 144.125 -39 143 C-39.185625 144.3921875 -39.185625 144.3921875 -39.375 145.8125 C-41 149 -41 149 -43.11328125 150.06640625 C-48.04824876 151.6165402 -52.82394066 152.71043952 -58 152 C-58.721875 151.319375 -59.44375 150.63875 -60.1875 149.9375 C-63.67947509 147.53191716 -64.50910469 148.06039638 -68.5625 148.75 C-75.37565891 149.57634848 -79.15565155 147.40044146 -84.5703125 143.40625 C-87.61210749 140.39379709 -88.54151533 137.94902386 -89.43359375 133.83984375 C-89.71396484 132.92912109 -89.71396484 132.92912109 -90 132 C-92.42885788 130.61141128 -92.42885788 130.61141128 -95 130 C-100.44220378 124.26400116 -102.15148271 113.45052985 -102.5625 105.75 C-102.34028126 100.47230501 -101.08721153 95.4191935 -99.8125 90.3125 C-99.61664307 89.51618164 -99.42078613 88.71986328 -99.21899414 87.89941406 C-97.73673961 82.43399106 -95.67167335 77.38868525 -92 73 C-91.34 73 -90.68 73 -90 73 C-89.95875 72.0925 -89.9175 71.185 -89.875 70.25 C-88.79345322 62.87445181 -85.04007889 55.22042877 -79.1875 50.5625 C-78.31158203 49.97662109 -78.31158203 49.97662109 -77.41796875 49.37890625 C-75.44513449 47.46042004 -75.50556016 45.67672547 -75 43 C-73.546875 40.359375 -73.546875 40.359375 -71.75 37.75 C-71.16734375 36.87859375 -70.5846875 36.0071875 -69.984375 35.109375 C-67.62113898 32.59727372 -66.28857855 32.62332535 -63 32 C-61.85038317 30.17557666 -61.85038317 30.17557666 -61 28 C-53.07919703 18.45344749 -41.35997338 8.23386159 -29.00390625 5.546875 C-26.71133522 5.06649272 -26.71133522 5.06649272 -24.3125 2.8125 C-21.13991077 0.32587601 -18.92460159 0.62975457 -15 1 C-14.01 1.495 -14.01 1.495 -13 2 C-11.948125 1.2575 -11.948125 1.2575 -10.875 0.5 C-6.9676175 -1.53863435 -4.19129179 -1.0243483 0 0 Z " fill="#116E31" transform="translate(102,23)"/>
<path d="M0 0 C3.2941308 1.49069843 5.53234644 3.38279168 8 6 C8.56332031 6.57621094 9.12664062 7.15242187 9.70703125 7.74609375 C15.01118162 13.54065218 17.49844669 19.08876851 17.875 27 C17.93022827 28.11387085 17.93022827 28.11387085 17.98657227 29.25024414 C18.34442467 40.60326339 16.0156787 50.89568414 9 60 C5.39338864 63.69908858 2.07331377 65.06989247 -3 66 C-9.71381587 66 -15.93873609 64.73203364 -21.0703125 60.15234375 C-28.09884269 52.79961936 -31.25440622 45.06551597 -32 35 C-31.34 35 -30.68 35 -30 35 C-30.0825 33.824375 -30.165 32.64875 -30.25 31.4375 C-30.27977275 28.06722482 -29.75295798 26.14486399 -27.9375 23.3125 C-25.64568336 20.26332146 -25.64568336 20.26332146 -26.5625 17.5625 C-27.19514738 13.85699392 -25.7260459 12.0734379 -23.625 9.0703125 C-16.89038072 0.49014851 -11.13089594 -2.05453453 0 0 Z " fill="#95BE10" transform="translate(236,0)"/>
<path d="M0 0 C1.65 0 3.3 0 5 0 C6.4855957 1.56054688 6.4855957 1.56054688 7.67578125 3.71875 C8.11083984 4.48574219 8.54589844 5.25273437 8.99414062 6.04296875 C9.42919922 6.85378906 9.86425781 7.66460937 10.3125 8.5 C10.76689453 9.31082031 11.22128906 10.12164062 11.68945312 10.95703125 C12.80987626 12.96199897 13.90717162 14.979859 15 17 C15.33 11.39 15.66 5.78 16 0 C17.32 0 18.64 0 20 0 C20 9.57 20 19.14 20 29 C18.35 29 16.7 29 15 29 C12.03 23.72 9.06 18.44 6 13 C5.67 17.95 5.34 22.9 5 28 C3.35 28.33 1.7 28.66 0 29 C0 19.43 0 9.86 0 0 Z " fill="#066835" transform="translate(361,194)"/>
<path d="M0 0 C-0.33 1.32 -0.66 2.64 -1 4 C-3.31 4 -5.62 4 -8 4 C-8.33 5.32 -8.66 6.64 -9 8 C-5.7 8 -2.4 8 1 8 C1 14.93 1 21.86 1 29 C-0.65 29 -2.3 29 -4 29 C-4 23.39 -4 17.78 -4 12 C-5.65 12 -7.3 12 -9 12 C-9 17.28 -9 22.56 -9 28 C-10.65 28.33 -12.3 28.66 -14 29 C-15 28 -15 28 -15.09765625 24.40234375 C-15.0909822 22.91403133 -15.07902183 21.42573568 -15.0625 19.9375 C-15.05798828 19.17888672 -15.05347656 18.42027344 -15.04882812 17.63867188 C-15.0370068 15.75908129 -15.01907078 13.87953101 -15 12 C-15.66 12 -16.32 12 -17 12 C-17 10.68 -17 9.36 -17 8 C-16.34 7.67 -15.68 7.34 -15 7 C-14.566875 5.865625 -14.13375 4.73125 -13.6875 3.5625 C-12 0 -12 0 -9.75 -1.5625 C-6.08192094 -2.14605803 -3.463566 -1.22243506 0 0 Z " fill="#066835" transform="translate(275,194)"/>
<path d="M0 0 C1.65 0.33 3.3 0.66 5 1 C5 10.57 5 20.14 5 30 C0.38 30 -4.24 30 -9 30 C-13.09536647 25.90463353 -13.84516529 25.0902686 -14.25 19.625 C-13.9180558 14.81180912 -12.35600281 12.35600281 -9 9 C-2.67741935 8.66129032 -2.67741935 8.66129032 0 10 C0 6.7 0 3.4 0 0 Z M-7.6875 14.625 C-9.36893573 17.66759799 -9.43782812 19.57034638 -9 23 C-7.89350331 25.02478463 -7.89350331 25.02478463 -6 26 C-3.88850355 26.07642709 -3.88850355 26.07642709 -2 25 C-0.00974413 22.4410996 0.01059708 21.13246352 -0.25 17.875 C-0.76883165 14.89402202 -0.76883165 14.89402202 -3 13 C-6.03029124 12.65317916 -6.03029124 12.65317916 -7.6875 14.625 Z " fill="#066835" transform="translate(91,241)"/>
<path d="M0 0 C4.62 0 9.24 0 14 0 C19.1457976 5.1457976 19.1457976 5.1457976 19.25 10.3125 C19.21114498 14.33399455 18.59990641 16.80011519 16 20 C12.78548731 21.60725635 9.56387464 21.05748185 6 21 C5.67 23.64 5.34 26.28 5 29 C3.35 29 1.7 29 0 29 C0 19.43 0 9.86 0 0 Z M6.3125 5.625 C4.63106427 8.66759799 4.56217188 10.57034638 5 14 C6.04374022 16.04451019 6.04374022 16.04451019 8 17 C10.6272914 16.92466753 10.6272914 16.92466753 13 16 C14.52491998 12.95016004 14.23562548 10.3576631 14 7 C12.83115894 4.99515224 12.83115894 4.99515224 11 4 C7.96970876 3.65317916 7.96970876 3.65317916 6.3125 5.625 Z " fill="#066835" transform="translate(332,250)"/>
<path d="M0 0 C1.65 0 3.3 0 5 0 C5 9.9 5 19.8 5 30 C0.38 30 -4.24 30 -9 30 C-13.89867841 23.87665198 -13.89867841 23.87665198 -14 18 C-12.91502376 13.90028062 -11.61689344 11.41126229 -8 9 C-5.66800612 8.92094936 -3.33167378 8.91201231 -1 9 C-0.67 6.03 -0.34 3.06 0 0 Z M-8 15 C-8.43932865 17.13488276 -8.43932865 17.13488276 -8.3125 19.5 C-8.30863281 20.2940625 -8.30476562 21.088125 -8.30078125 21.90625 C-8.18225165 24.21733036 -8.18225165 24.21733036 -6 26 C-3.42459787 25.83492354 -3.42459787 25.83492354 -1 25 C0.52491998 21.95016004 0.23562548 19.3576631 0 16 C-1.23086042 14.0153062 -1.23086042 14.0153062 -3 13 C-5.32357511 12.81509993 -5.32357511 12.81509993 -8 15 Z " fill="#066835" transform="translate(156,241)"/>
<path d="M0 0 C1.65 0 3.3 0 5 0 C5.01981934 0.62044189 5.03963867 1.24088379 5.06005859 1.88012695 C5.15531845 4.69134537 5.26499302 7.50182166 5.375 10.3125 C5.4059375 11.28896484 5.436875 12.26542969 5.46875 13.27148438 C5.50742188 14.20927734 5.54609375 15.14707031 5.5859375 16.11328125 C5.6173584 16.97735596 5.6487793 17.84143066 5.68115234 18.73168945 C5.87188037 21.27742445 5.87188037 21.27742445 8 24 C9.98 24 11.96 24 14 24 C14.33 16.41 14.66 8.82 15 1 C16.65 0.67 18.3 0.34 20 0 C20.08741124 3.56234428 20.14052896 7.12441108 20.1875 10.6875 C20.21263672 11.69490234 20.23777344 12.70230469 20.26367188 13.74023438 C20.35545986 23.01082132 20.35545986 23.01082132 17 27 C14.36673543 29.63326457 12.67446899 29.71180635 9 30 C5.54580384 29.03603828 3.24867648 27.8108456 1 25 C-0.00005304 21.99984088 -0.11575585 20.02576244 -0.09765625 16.89453125 C-0.09443359 15.91162109 -0.09121094 14.92871094 -0.08789062 13.91601562 C-0.07951172 12.89185547 -0.07113281 11.86769531 -0.0625 10.8125 C-0.05798828 9.77673828 -0.05347656 8.74097656 -0.04882812 7.67382812 C-0.0370401 5.11582734 -0.02058515 2.55794267 0 0 Z " fill="#066835" transform="translate(207,194)"/>
<path d="M0 0 C2.475 0.495 2.475 0.495 5 1 C5.33 0.67 5.66 0.34 6 0 C8.92704095 -0.28790567 11.15081568 -0.48225493 14 0 C17.06507396 2.59352412 17.867168 4.52180478 18.9375 8.375 C19.01302405 12.75539494 18.18416347 15.21411665 16 19 C13.625 21 13.625 21 11 22 C8.1875 21.6875 8.1875 21.6875 6 21 C5.67 23.64 5.34 26.28 5 29 C3.35 29 1.7 29 0 29 C0 19.43 0 9.86 0 0 Z M5 6 C4.56067135 8.13488276 4.56067135 8.13488276 4.6875 10.5 C4.69136719 11.2940625 4.69523437 12.088125 4.69921875 12.90625 C4.81774835 15.21733036 4.81774835 15.21733036 7 17 C9.60280568 16.67958603 9.60280568 16.67958603 12 16 C13.37956016 12.70438407 14.1611131 10.72500893 13.375 7.1875 C12.19672418 4.88384735 12.19672418 4.88384735 10.0625 4.0625 C7.68549908 3.79103278 7.68549908 3.79103278 5 6 Z " fill="#066835" transform="translate(62,202)"/>
<path d="M0 0 C1.65 0 3.3 0 5 0 C5 9.9 5 19.8 5 30 C3.35 29.67 1.7 29.34 0 29 C-0.825 29.350625 -1.65 29.70125 -2.5 30.0625 C-5 31 -5 31 -7.625 30.4375 C-10.6985418 28.57719838 -11.64714511 27.34653579 -13 24 C-13.64676992 20.14780992 -13.77528986 16.68840903 -12.12109375 13.0859375 C-10.9375 11.4375 -10.9375 11.4375 -8 9 C-4.1875 8.625 -4.1875 8.625 -1 9 C-0.67 6.03 -0.34 3.06 0 0 Z M-6.6875 14.0625 C-8.7036153 17.0386702 -8.31246547 19.50038671 -8 23 C-7.01 24.485 -7.01 24.485 -6 26 C-2.70924004 25.62095792 -2.70924004 25.62095792 0 24 C0.19941868 21.93227266 0.19941868 21.93227266 0.1875 19.5625 C0.20167969 18.75941406 0.21585937 17.95632812 0.23046875 17.12890625 C0.20162356 14.78369367 0.20162356 14.78369367 -2 13 C-4.90923892 12.73359337 -4.90923892 12.73359337 -6.6875 14.0625 Z " fill="#066835" transform="translate(326,193)"/>
<path d="M0 0 C4.62 0 9.24 0 14 0 C14.33 1.65 14.66 3.3 15 5 C11.7 5 8.4 5 5 5 C5 7.31 5 9.62 5 12 C7.97 12 10.94 12 14 12 C14 13.32 14 14.64 14 16 C11.03 16 8.06 16 5 16 C5 18.64 5 21.28 5 24 C8.3 24 11.6 24 15 24 C15.33 25.32 15.66 26.64 16 28 C15 29 15 29 11.62109375 29.09765625 C10.22652508 29.09191424 8.83198403 29.07890228 7.4375 29.0625 C4.983125 29.041875 2.52875 29.02125 0 29 C0 19.43 0 9.86 0 0 Z " fill="#066835" transform="translate(126,242)"/>
<path d="M0 0 C0.66 0.33 1.32 0.66 2 1 C1.67 2.65 1.34 4.3 1 6 C-1.64 6 -4.28 6 -7 6 C-7 7.32 -7 8.64 -7 10 C-6.36191406 10.33773437 -5.72382813 10.67546875 -5.06640625 11.0234375 C-4.24011719 11.46945313 -3.41382813 11.91546875 -2.5625 12.375 C-1.73878906 12.81585938 -0.91507812 13.25671875 -0.06640625 13.7109375 C2 15 2 15 3 17 C3.55925433 23.93475366 3.55925433 23.93475366 1.6875 27.5 C-2.6106507 29.89896783 -7.18159503 29.48582265 -12 29 C-13 28 -13 28 -13.0625 25.4375 C-13.041875 24.633125 -13.02125 23.82875 -13 23 C-12.37351562 23.0721875 -11.74703125 23.144375 -11.1015625 23.21875 C-9.87566406 23.35796875 -9.87566406 23.35796875 -8.625 23.5 C-7.40683594 23.63921875 -7.40683594 23.63921875 -6.1640625 23.78125 C-4.03087175 24.03352351 -4.03087175 24.03352351 -2 24 C-2.60298307 20.758966 -3.20730659 18.60811615 -5.87890625 16.55859375 C-7.30910938 15.70149527 -8.75706651 14.87320081 -10.22265625 14.078125 C-12 13 -12 13 -13 11 C-13.52981019 7.02642355 -13.31881474 5.45829619 -11 2.125 C-6.93091498 -0.75726856 -4.90288057 -0.48225055 0 0 Z " fill="#066835" transform="translate(306,242)"/>
<path d="M0 0 C0.66 0.33 1.32 0.66 2 1 C2 2.32 2 3.64 2 5 C0.96875 4.938125 -0.0625 4.87625 -1.125 4.8125 C-5.26656148 5.01289814 -7.50462369 5.83619562 -11 8 C-12.16968953 10.33937907 -12.13364221 11.77369368 -12.125 14.375 C-12.12757812 15.14585937 -12.13015625 15.91671875 -12.1328125 16.7109375 C-12.00389788 18.9328189 -11.61383717 20.86618508 -11 23 C-9.58366664 23.16947579 -8.16691467 23.33545507 -6.75 23.5 C-5.56664062 23.63921875 -5.56664062 23.63921875 -4.359375 23.78125 C-1.73109603 24.06154619 -1.73109603 24.06154619 2 24 C1.67 25.65 1.34 27.3 1 29 C-4.29451972 30.08051423 -7.97298809 30.08668419 -13 28 C-17.80075402 22.94657472 -18.29945706 19.53346478 -18.2109375 12.76171875 C-17.81980859 7.64082722 -16.12274294 5.01581504 -12.375 1.625 C-8.12513117 -0.42123314 -4.64304187 -0.56645111 0 0 Z " fill="#066835" transform="translate(25,194)"/>
<path d="M0 0 C0.78246094 -0.02578125 1.56492187 -0.0515625 2.37109375 -0.078125 C4.5625 0.25 4.5625 0.25 6.28515625 1.515625 C9.19073149 5.46080973 8.66897034 9.75120292 8.625 14.5 C8.61597656 15.76328125 8.60695313 17.0265625 8.59765625 18.328125 C8.58605469 19.29234375 8.57445312 20.2565625 8.5625 21.25 C6.81431409 21.47304441 5.06379677 21.6778645 3.3125 21.875 C1.85070312 22.04902344 1.85070312 22.04902344 0.359375 22.2265625 C-2.60157363 22.25137492 -4.00464398 21.89050383 -6.4375 20.25 C-7.85791821 17.40916359 -7.75202272 15.39522722 -7.4375 12.25 C-5.23693285 9.11842368 -3.93591035 8.36501777 -0.1875 7.5 C0.72 7.4175 1.6275 7.335 2.5625 7.25 C2.2325 6.59 1.9025 5.93 1.5625 5.25 C-0.7475 5.25 -3.0575 5.25 -5.4375 5.25 C-5.7675 3.93 -6.0975 2.61 -6.4375 1.25 C-4.11063547 0.08656773 -2.59028587 0.05104012 0 0 Z M-2.4375 13.25 C-2.4375 14.57 -2.4375 15.89 -2.4375 17.25 C-0.7875 16.92 0.8625 16.59 2.5625 16.25 C2.8925 14.6 3.2225 12.95 3.5625 11.25 C0.37759993 10.9726499 0.37759993 10.9726499 -2.4375 13.25 Z " fill="#066835" transform="translate(475.4375,201.75)"/>
<path d="M0 0 C0.78246094 -0.02578125 1.56492187 -0.0515625 2.37109375 -0.078125 C4.5625 0.25 4.5625 0.25 6.28515625 1.515625 C9.19073149 5.46080973 8.66897034 9.75120292 8.625 14.5 C8.61597656 15.76328125 8.60695313 17.0265625 8.59765625 18.328125 C8.58605469 19.29234375 8.57445312 20.2565625 8.5625 21.25 C6.81431409 21.47304441 5.06379677 21.6778645 3.3125 21.875 C1.85070312 22.04902344 1.85070312 22.04902344 0.359375 22.2265625 C-2.60157363 22.25137492 -4.00464398 21.89050383 -6.4375 20.25 C-7.85791821 17.40916359 -7.75202272 15.39522722 -7.4375 12.25 C-4.74404915 8.52060651 -1.79791851 7.43920505 2.5625 6.25 C1.82 6.105625 1.0775 5.96125 0.3125 5.8125 C-1.95777739 5.34812508 -4.19509479 4.83136431 -6.4375 4.25 C-6.4375 3.26 -6.4375 2.27 -6.4375 1.25 C-4.11063547 0.08656773 -2.59028587 0.05104012 0 0 Z M-2.4375 13.25 C-2.4375 14.57 -2.4375 15.89 -2.4375 17.25 C-0.7875 16.92 0.8625 16.59 2.5625 16.25 C2.8925 14.6 3.2225 12.95 3.5625 11.25 C0.37759993 10.9726499 0.37759993 10.9726499 -2.4375 13.25 Z " fill="#066835" transform="translate(302.4375,201.75)"/>
<path d="M0 0 C2.43119623 1.87015094 3.64069173 3.28138345 5 6 C5.43546696 10.26255164 5.42778484 13.94179539 3.8125 17.9375 C1.6178485 20.43486205 0.23789661 21.24700079 -3 22 C-7.24540492 22 -8.67572532 21.28902743 -11.875 18.4375 C-14.73955323 14.59345438 -14.59489496 11.6847978 -14 7 C-11.09464752 0.63589457 -6.83857202 -1.15814526 0 0 Z M-7.6875 5.0625 C-9.72262773 8.06673617 -9.37794588 10.47250511 -9 14 C-7.97578739 16.10938785 -7.97578739 16.10938785 -6 17 C-3.3727086 16.92466753 -3.3727086 16.92466753 -1 16 C0.52491998 12.95016004 0.23562548 10.3576631 0 7 C-1.16884106 4.99515224 -1.16884106 4.99515224 -3 4 C-5.90923892 3.73359337 -5.90923892 3.73359337 -7.6875 5.0625 Z " fill="#066835" transform="translate(441,202)"/>
<path d="M0 0 C3.05773123 0.73509094 4.80637772 2.20870554 6.93359375 4.46484375 C8.46103997 9.04718242 8.70807371 12.88068019 6.55859375 17.27734375 C3.5306612 21.3534068 3.5306612 21.3534068 0.9453125 21.8359375 C-3.22297195 21.95503134 -5.49794913 21.81287872 -9.12890625 19.58984375 C-11.87012851 15.16851753 -12.05259053 11.53318428 -11.06640625 6.46484375 C-8.86158745 1.33712297 -5.39654596 -0.41825782 0 0 Z M-4.75390625 5.46484375 C-6.91465765 8.75741731 -6.37457503 11.58191706 -6.06640625 15.46484375 C-5.40640625 16.12484375 -4.74640625 16.78484375 -4.06640625 17.46484375 C-1.52689081 17.37372437 -1.52689081 17.37372437 0.93359375 16.46484375 C3.3058237 13.56904993 3.3058237 13.56904993 2.68359375 9.90234375 C2.24774935 6.41891763 2.24774935 6.41891763 -0.06640625 4.46484375 C-2.96318454 4.20994255 -2.96318454 4.20994255 -4.75390625 5.46484375 Z " fill="#066835" transform="translate(403.06640625,249.53515625)"/>
<path d="M0 0 C2.86356099 0.61839547 4.50556773 2.14847628 6.15625 4.5234375 C7.78753269 8.18259912 7.86777178 11.54990668 7.0078125 15.43359375 C5.20331419 19.1037598 2.96443838 21.08758013 -0.9296875 22.49609375 C-4.74120287 22.41830772 -6.81966002 21.52457777 -9.9921875 19.43359375 C-12.41553924 16.45948024 -12.34805171 13.15942082 -12.25 9.3984375 C-11.87168505 6.515219 -10.78399605 4.68994526 -8.9921875 2.43359375 C-5.8138595 0.31470841 -3.79928396 -0.11916573 0 0 Z M-5.6796875 5.49609375 C-7.6958028 8.47226395 -7.30465297 10.93398046 -6.9921875 14.43359375 C-6.0021875 15.91859375 -6.0021875 15.91859375 -4.9921875 17.43359375 C-2.02153241 17.09131803 -2.02153241 17.09131803 1.0078125 16.43359375 C2.53273248 13.38375379 2.24343798 10.79125685 2.0078125 7.43359375 C0.83897144 5.42874599 0.83897144 5.42874599 -0.9921875 4.43359375 C-3.90142642 4.16718712 -3.90142642 4.16718712 -5.6796875 5.49609375 Z " fill="#066835" transform="translate(168.9921875,201.56640625)"/>
<path d="M0 0 C3.23466374 2.62816429 4.59959694 4.15880231 5.4765625 8.19140625 C5.73755571 12.25053743 5.32407984 15.1921519 2.875 18.5 C-0.34903922 21.30351236 -1.75248732 22.08668393 -6 22 C-11.34507266 20.04699268 -11.34507266 20.04699268 -13.1484375 17.1640625 C-14.60047432 13.47402396 -14.58328986 9.89554302 -14 6 C-10.48235368 0.3717659 -6.59838452 -1.28687423 0 0 Z M-7.6875 5.0625 C-9.7036153 8.0386702 -9.31246547 10.50038671 -9 14 C-8.01 15.485 -8.01 15.485 -7 17 C-4.02934491 16.65772428 -4.02934491 16.65772428 -1 16 C0.52491998 12.95016004 0.23562548 10.3576631 0 7 C-1.16884106 4.99515224 -1.16884106 4.99515224 -3 4 C-5.90923892 3.73359337 -5.90923892 3.73359337 -7.6875 5.0625 Z " fill="#066835" transform="translate(42,202)"/>
<path d="M0 0 C2.96568565 0.09150028 3.99150384 0.28942554 6.5625 1.9375 C8.57852732 5.08250262 8.91555915 7.67487825 9.125 11.375 C8.125 12.375 8.125 12.375 5.40234375 12.47265625 C3.74912109 12.45525391 3.74912109 12.45525391 2.0625 12.4375 C0.40541016 12.42396484 0.40541016 12.42396484 -1.28515625 12.41015625 C-2.13980469 12.39855469 -2.99445313 12.38695312 -3.875 12.375 C-3.545 13.695 -3.215 15.015 -2.875 16.375 C0.425 16.375 3.725 16.375 7.125 16.375 C7.125 18.025 7.125 19.675 7.125 21.375 C-2.99555838 22.00317259 -2.99555838 22.00317259 -6.5 19.5 C-9.08609021 15.50331514 -9.39802512 12.07320842 -8.875 7.375 C-6.65960478 2.74281 -5.27519489 0.51050273 0 0 Z M-1.875 4.375 C-2.535 5.695 -3.195 7.015 -3.875 8.375 C-1.235 8.375 1.405 8.375 4.125 8.375 C3.465 7.055 2.805 5.735 2.125 4.375 C0.805 4.375 -0.515 4.375 -1.875 4.375 Z " fill="#066835" transform="translate(106.875,249.625)"/>
<path d="M0 0 C2.92810972 1.99360662 4.50369764 3.49876243 5.62890625 6.90234375 C6.5134772 11.75351707 5.71161892 14.78192613 3 19 C0.33946492 21.66053508 -1.27055195 21.78483954 -5 22 C-8.97472063 20.47126129 -10.61853665 19.57219503 -13 16 C-13.265625 13.66015625 -13.265625 13.66015625 -13.25 11.0625 C-13.25515625 10.20785156 -13.2603125 9.35320312 -13.265625 8.47265625 C-12.97995383 5.81339378 -12.44968995 4.23735482 -11 2 C-7.30760278 -0.46159814 -4.28452638 -0.79343081 0 0 Z M-6 4 C-8.18939909 5.78107249 -8.18939909 5.78107249 -8.265625 8.09375 C-8.26046875 8.8878125 -8.2553125 9.681875 -8.25 10.5 C-8.25515625 11.2940625 -8.2603125 12.088125 -8.265625 12.90625 C-8.18939909 15.21892751 -8.18939909 15.21892751 -6 17 C-3.46048456 16.90888062 -3.46048456 16.90888062 -1 16 C1.37222995 13.10420618 1.37222995 13.10420618 0.75 9.4375 C0.3141556 5.95407388 0.3141556 5.95407388 -2 4 C-3.32 4 -4.64 4 -6 4 Z " fill="#066835" transform="translate(95,202)"/>
<path d="M0 0 C2.375 1.5 2.375 1.5 4 4 C4.60891847 6.70401084 4.81444126 9.21661895 5 12 C0.71 12 -3.58 12 -8 12 C-7.67 13.32 -7.34 14.64 -7 16 C-3.7 16 -0.4 16 3 16 C3.33 17.32 3.66 18.64 4 20 C2.27415266 21.72584734 0.03790633 21.2533507 -2.3125 21.3125 C-5.75507607 21.25891905 -7.58219854 21.22879604 -10.625 19.5625 C-12.6534255 15.78225248 -13.20006077 12.27537272 -13 8 C-10.4877717 1.09137217 -7.29244452 -0.76762574 0 0 Z M-6 4 C-6.66 5.32 -7.32 6.64 -8 8 C-5.36 8 -2.72 8 0 8 C-0.66 6.68 -1.32 5.36 -2 4 C-3.32 4 -4.64 4 -6 4 Z " fill="#066835" transform="translate(365,250)"/>
<path d="M0 0 C12.20047923 -0.48801917 12.20047923 -0.48801917 15.40625 1.46875 C17.75245567 5.19507666 17.43561606 8.44513521 17.25 12.75 C17.23195313 13.54277344 17.21390625 14.33554687 17.1953125 15.15234375 C17.14833082 17.10208348 17.07659044 19.05119878 17 21 C15.35 21 13.7 21 12 21 C11.67 16.05 11.34 11.1 11 6 C9.35 5.67 7.7 5.34 6 5 C5.67 10.28 5.34 15.56 5 21 C3.35 21 1.7 21 0 21 C0 14.07 0 7.14 0 0 Z " fill="#066835" transform="translate(265,250)"/>
<path d="M0 0 C2.69105198 2.17574416 4.45532928 3.91065856 6 7 C6.04318688 11.39642437 5.43720846 15.10736605 3.5 19.0625 C0.29782397 21.54418642 -1.82199336 21.7316341 -5.8046875 21.46875 C-8 21 -8 21 -11.0625 19.125 C-13.74805018 14.79346745 -13.76957558 10.98198925 -13 6 C-10.6982167 0.01536343 -6.02615691 -1.18643635 0 0 Z M-8 6 C-9.03854755 8.95586612 -9.07101827 10.68751962 -8.375 13.75 C-7.18101603 16.2608374 -7.18101603 16.2608374 -4.375 16.8125 C-3.59125 16.874375 -2.8075 16.93625 -2 17 C-0.2910871 15.4212319 -0.2910871 15.4212319 1 13 C0.81541642 7.94892809 0.81541642 7.94892809 -2 4 C-5.18490007 3.7226499 -5.18490007 3.7226499 -8 6 Z " fill="#066835" transform="translate(257,250)"/>
<path d="M0 0 C0.78246094 -0.03738281 1.56492187 -0.07476562 2.37109375 -0.11328125 C4.5625 0.3125 4.5625 0.3125 6.3046875 1.78515625 C8.14450122 5.48192481 8.13158607 8.98229444 8.25 13.0625 C8.30124023 14.25166016 8.30124023 14.25166016 8.35351562 15.46484375 C8.43569104 17.41357504 8.50078045 19.36301362 8.5625 21.3125 C-1.0746308 22.71334388 -1.0746308 22.71334388 -5.625 21.375 C-7.90001726 18.78618725 -8.20373941 16.67062128 -7.99609375 13.25390625 C-7.4375 11.3125 -7.4375 11.3125 -4.6875 8.8125 C-1.4375 7.3125 -1.4375 7.3125 2.5625 7.3125 C2.2325 6.6525 1.9025 5.9925 1.5625 5.3125 C-1.0775 5.3125 -3.7175 5.3125 -6.4375 5.3125 C-6.4375 3.9925 -6.4375 2.6725 -6.4375 1.3125 C-4.12316978 0.15533489 -2.57689188 0.08039564 0 0 Z M-2.4375 13.3125 C-2.4375 14.6325 -2.4375 15.9525 -2.4375 17.3125 C-0.7875 16.9825 0.8625 16.6525 2.5625 16.3125 C2.8925 14.6625 3.2225 13.0125 3.5625 11.3125 C0.37759993 11.0351499 0.37759993 11.0351499 -2.4375 13.3125 Z " fill="#066835" transform="translate(341.4375,201.6875)"/>
<path d="M0 0 C1.65 0 3.3 0 5 0 C5.33 5.28 5.66 10.56 6 16 C7.65 16 9.3 16 11 16 C11.33 10.72 11.66 5.44 12 0 C13.65 0 15.3 0 17 0 C17 6.93 17 13.86 17 21 C3.64643456 21.4900391 3.64643456 21.4900391 1.0625 19.53125 C-0.51732762 15.76754303 -0.31796107 12.28425755 -0.1875 8.25 C-0.17396484 7.45722656 -0.16042969 6.66445313 -0.14648438 5.84765625 C-0.11125223 3.89814436 -0.05744821 1.94898374 0 0 Z " fill="#066835" transform="translate(312,250)"/>
<path d="M0 0 C2.2421875 1.47265625 2.2421875 1.47265625 4 4 C4.47921552 6.93454296 4.37776628 9.78680521 4.25 12.75 C4.23195312 13.54277344 4.21390625 14.33554687 4.1953125 15.15234375 C4.14833082 17.10208348 4.07659044 19.05119878 4 21 C1.89695523 21.1080023 -0.20766909 21.18558987 -2.3125 21.25 C-4.07013672 21.31960938 -4.07013672 21.31960938 -5.86328125 21.390625 C-9 21 -9 21 -10.92578125 19.17578125 C-12.45451951 16.0793914 -11.97077558 14.25903229 -11 11 C-9.875 9.1875 -9.875 9.1875 -8 8 C-4.3125 7.3125 -4.3125 7.3125 -1 7 C-1.33 6.34 -1.66 5.68 -2 5 C-4.64 5 -7.28 5 -10 5 C-10 3.68 -10 2.36 -10 1 C-6.87057535 -0.56471233 -3.38917777 -0.69701958 0 0 Z M-6 12 C-6.73323796 14.01508358 -6.73323796 14.01508358 -7 16 C-5.34385343 16.38218767 -3.67542976 16.71395102 -2 17 C-0.70366379 15.93354885 -0.70366379 15.93354885 -0.9375 13.4375 C-0.958125 12.633125 -0.97875 11.82875 -1 11 C-3.21081851 10.89459074 -3.21081851 10.89459074 -6 12 Z " fill="#066835" transform="translate(212,250)"/>
<path d="M0 0 C0.78246094 -0.03738281 1.56492187 -0.07476562 2.37109375 -0.11328125 C4.5625 0.3125 4.5625 0.3125 6.3046875 1.78515625 C8.14450122 5.48192481 8.13158607 8.98229444 8.25 13.0625 C8.30124023 14.25166016 8.30124023 14.25166016 8.35351562 15.46484375 C8.43569104 17.41357504 8.50078045 19.36301362 8.5625 21.3125 C6.81431409 21.53554441 5.06379677 21.7403645 3.3125 21.9375 C1.85070312 22.11152344 1.85070312 22.11152344 0.359375 22.2890625 C-2.60157363 22.31387492 -4.00464398 21.95300383 -6.4375 20.3125 C-7.85791821 17.47166359 -7.75202272 15.45772722 -7.4375 12.3125 C-5.23693285 9.18092368 -3.93591035 8.42751777 -0.1875 7.5625 C0.72 7.48 1.6275 7.3975 2.5625 7.3125 C2.2325 6.6525 1.9025 5.9925 1.5625 5.3125 C-1.0775 5.3125 -3.7175 5.3125 -6.4375 5.3125 C-6.4375 3.9925 -6.4375 2.6725 -6.4375 1.3125 C-4.12316978 0.15533489 -2.57689188 0.08039564 0 0 Z M-2.4375 13.3125 C-2.4375 14.6325 -2.4375 15.9525 -2.4375 17.3125 C-0.7875 16.9825 0.8625 16.6525 2.5625 16.3125 C2.8925 14.6625 3.2225 13.0125 3.5625 11.3125 C0.37759993 11.0351499 0.37759993 11.0351499 -2.4375 13.3125 Z " fill="#066835" transform="translate(121.4375,201.6875)"/>
<path d="M0 0 C0.78246094 -0.03738281 1.56492187 -0.07476562 2.37109375 -0.11328125 C4.5625 0.3125 4.5625 0.3125 6.3046875 1.78515625 C8.14450122 5.48192481 8.13158607 8.98229444 8.25 13.0625 C8.30124023 14.25166016 8.30124023 14.25166016 8.35351562 15.46484375 C8.43569104 17.41357504 8.50078045 19.36301362 8.5625 21.3125 C6.81431409 21.53554441 5.06379677 21.7403645 3.3125 21.9375 C1.85070312 22.11152344 1.85070312 22.11152344 0.359375 22.2890625 C-2.60157363 22.31387492 -4.00464398 21.95300383 -6.4375 20.3125 C-7.85791821 17.47166359 -7.75202272 15.45772722 -7.4375 12.3125 C-5.23693285 9.18092368 -3.93591035 8.42751777 -0.1875 7.5625 C0.72 7.48 1.6275 7.3975 2.5625 7.3125 C2.2325 6.6525 1.9025 5.9925 1.5625 5.3125 C-1.0775 5.3125 -3.7175 5.3125 -6.4375 5.3125 C-6.4375 3.9925 -6.4375 2.6725 -6.4375 1.3125 C-4.12316978 0.15533489 -2.57689188 0.08039564 0 0 Z M-2.4375 13.3125 C-2.4375 14.6325 -2.4375 15.9525 -2.4375 17.3125 C-0.7875 16.9825 0.8625 16.6525 2.5625 16.3125 C2.8925 14.6625 3.2225 13.0125 3.5625 11.3125 C0.37759993 11.0351499 0.37759993 11.0351499 -2.4375 13.3125 Z " fill="#066835" transform="translate(391.4375,201.6875)"/>
<path d="M0 0 C2.475 0.495 2.475 0.495 5 1 C5.33 0.67 5.66 0.34 6 0 C12.35779817 -0.47094801 12.35779817 -0.47094801 14.875 1.375 C17.49501996 5.15947328 17.1123987 8.68017692 17.0625 13.125 C17.05798828 13.87910156 17.05347656 14.63320312 17.04882812 15.41015625 C17.03703499 17.27347127 17.01909942 19.13674555 17 21 C15.35 21 13.7 21 12 21 C11.67 16.05 11.34 11.1 11 6 C9.35 5.67 7.7 5.34 6 5 C5.67 10.28 5.34 15.56 5 21 C3.35 21 1.7 21 0 21 C0 14.07 0 7.14 0 0 Z " fill="#066835" transform="translate(231,202)"/>
<path d="M0 0 C2.475 0.495 2.475 0.495 5 1 C5.33 0.67 5.66 0.34 6 0 C12.3 -0.46666667 12.3 -0.46666667 14.875 1.25 C17.47263074 5.29075893 17.10585761 9.5673786 17.0625 14.25 C17.05347656 15.51328125 17.04445313 16.7765625 17.03515625 18.078125 C17.02355469 19.04234375 17.01195312 20.0065625 17 21 C15.35 21 13.7 21 12 21 C11.67 15.72 11.34 10.44 11 5 C9.35 5.33 7.7 5.66 6 6 C5.67 10.95 5.34 15.9 5 21 C3.35 21 1.7 21 0 21 C0 14.07 0 7.14 0 0 Z " fill="#066835" transform="translate(449,202)"/>
<path d="M0 0 C1.32 0 2.64 0 4 0 C4.66 5.28 5.32 10.56 6 16 C7.32 15.67 8.64 15.34 10 15 C10.33 10.05 10.66 5.1 11 0 C12.65 0 14.3 0 16 0 C16.33 6.6 16.66 13.2 17 20 C13.56740864 20.68651827 10.794404 21.17949682 7.375 21.25 C6.61960938 21.27578125 5.86421875 21.3015625 5.0859375 21.328125 C2.40122627 20.90581087 1.67676908 20.10680062 0 18 C-0.34057617 16.00708008 -0.34057617 16.00708008 -0.29296875 13.76953125 C-0.28330078 12.96708984 -0.27363281 12.16464844 -0.26367188 11.33789062 C-0.23853516 10.50451172 -0.21339844 9.67113281 -0.1875 8.8125 C-0.17396484 7.96751953 -0.16042969 7.12253906 -0.14648438 6.25195312 C-0.11115799 4.16769616 -0.05735139 2.08376723 0 0 Z " fill="#066835" transform="translate(165,250)"/>
<path d="M0 0 C13.35356544 -0.4900391 13.35356544 -0.4900391 15.9375 1.46875 C17.51732762 5.23245697 17.31796107 8.71574245 17.1875 12.75 C17.16719727 13.93916016 17.16719727 13.93916016 17.14648438 15.15234375 C17.11125223 17.10185564 17.05744821 19.05101626 17 21 C15.68 21 14.36 21 13 21 C12.67 15.72 12.34 10.44 12 5 C10.35 5.33 8.7 5.66 7 6 C5.58365167 8.83269666 5.6536995 11.47466438 5.4375 14.625 C5.35371094 15.81351563 5.26992187 17.00203125 5.18359375 18.2265625 C5.12300781 19.14179688 5.06242188 20.05703125 5 21 C3.68 21 2.36 21 1 21 C0.67 14.07 0.34 7.14 0 0 Z " fill="#066835" transform="translate(178,202)"/>
<path d="M0 0 C0.70792435 12.24961949 1.11360218 24.43714374 0.96289062 36.70922852 C0.95451172 37.63405029 0.94613281 38.55887207 0.9375 39.51171875 C0.92589844 40.33115967 0.91429687 41.15060059 0.90234375 41.99487305 C0.86849866 44.07297581 0.86849866 44.07297581 2 46 C1.94171716 47.62609119 1.85354903 49.25116286 1.75 50.875 C1.67422879 60.52320088 6.45390422 70.91463775 13 78 C18.78761125 82.33190375 25.06781722 82.44197393 32.08203125 82.43359375 C35.25605515 81.96195164 36.65841444 81.13747641 39 79 C39.99 79.495 39.99 79.495 41 80 C38.10444766 83.40653217 36.29799849 84.77725705 31.8359375 85.54296875 C23.37861255 85.88384132 17.47198916 84.54913145 11 79 C6.43568771 74.65156735 4.00783349 69.23434955 1.5625 63.5 C1.29083008 62.88326416 1.01916016 62.26652832 0.73925781 61.63110352 C-0.92309038 57.44929335 -0.94813844 54.51229349 -0.18017578 50.13110352 C0.02946905 47.65144269 -0.36622417 45.72834436 -0.93359375 43.30859375 C-2.32164998 37.20977072 -2.18217258 31.28910055 -2.0625 25.0625 C-1.93466439 16.96151022 -2.08575054 9.05650765 -3 1 C-3.78375 1.495 -4.5675 1.99 -5.375 2.5 C-8 4 -8 4 -10 4 C-10 2 -10 2 -8.375 0.3125 C-5.22223208 -1.42981911 -3.44469787 -0.70309587 0 0 Z " fill="#7AAE16" transform="translate(409,51)"/>
<path d="M0 0 C0.33 1.65 0.66 3.3 1 5 C-0.11375 4.95875 -1.2275 4.9175 -2.375 4.875 C-6.04366025 4.58878141 -6.04366025 4.58878141 -8 7 C-8.24253813 9.21072977 -8.24253813 9.21072977 -8.125 11.625 C-8.08375 13.06875 -8.0425 14.5125 -8 16 C-5.03 16 -2.06 16 1 16 C1 17.65 1 19.3 1 21 C-3.03681692 21.88809972 -5.39789542 22.22720927 -9.3125 20.75 C-12 19 -12 19 -14 16 C-14.71207438 11.11483856 -14.72852643 7.1899265 -12.125 2.9375 C-8.14215542 -0.69391711 -5.20749195 -0.08399181 0 0 Z " fill="#066835" transform="translate(416,202)"/>
<path d="M0 0 C1.22589844 0.01353516 1.22589844 0.01353516 2.4765625 0.02734375 C3.41628906 0.04474609 3.41628906 0.04474609 4.375 0.0625 C4.705 1.0525 5.035 2.0425 5.375 3.0625 C5.045 3.7225 4.715 4.3825 4.375 5.0625 C3.446875 5.02125 2.51875 4.98 1.5625 4.9375 C-1.78309719 4.79113661 -1.78309719 4.79113661 -4.625 7.0625 C-5.04166667 10.5625 -5.04166667 10.5625 -4.625 14.0625 C-2.66866025 16.47371859 -2.66866025 16.47371859 1 16.1875 C2.11375 16.14625 3.2275 16.105 4.375 16.0625 C4.9375 18 4.9375 18 5.375 20.0625 C3.72534831 21.71215169 1.8273645 21.31199498 -0.4375 21.375 C-5.24484552 21.34066182 -5.24484552 21.34066182 -8.1875 19.1875 C-10.85957999 15.23746871 -11.2791543 11.76368888 -10.625 7.0625 C-7.66325072 1.63262632 -6.08435615 -0.08691937 0 0 Z " fill="#066835" transform="translate(194.625,249.9375)"/>
<path d="M0 0 C0.33 1.65 0.66 3.3 1 5 C-0.11375 4.95875 -1.2275 4.9175 -2.375 4.875 C-6.04366025 4.58878141 -6.04366025 4.58878141 -8 7 C-8.24253813 9.21072977 -8.24253813 9.21072977 -8.125 11.625 C-8.08375 13.06875 -8.0425 14.5125 -8 16 C-5.03 16 -2.06 16 1 16 C1 17.65 1 19.3 1 21 C-3.03681692 21.88809972 -5.39789542 22.22720927 -9.3125 20.75 C-12 19 -12 19 -14 16 C-14.71207438 11.11483856 -14.72852643 7.1899265 -12.125 2.9375 C-8.14215542 -0.69391711 -5.20749195 -0.08399181 0 0 Z " fill="#066835" transform="translate(146,202)"/>
<path d="M0 0 C1.21236328 0.02707031 1.21236328 0.02707031 2.44921875 0.0546875 C3.37154297 0.08949219 3.37154297 0.08949219 4.3125 0.125 C4.6425 1.445 4.9725 2.765 5.3125 4.125 C2.30830359 5.1263988 -0.56459365 5.63921457 -3.6875 6.125 C-4.83899016 10.71579703 -4.83899016 10.71579703 -3.625 15.0625 C-0.92537512 16.54293945 1.28820019 16.32661999 4.3125 16.125 C4.6425 17.445 4.9725 18.765 5.3125 20.125 C-0.87644009 22.3093318 -0.87644009 22.3093318 -4.4375 21.5 C-8.27646412 19.15396637 -9.41330471 17.16302503 -10.5625 12.8125 C-10.7187726 8.20245843 -9.89381884 6.14365218 -7.6875 2.125 C-4.48369983 -0.01086678 -3.66810033 -0.10632175 0 0 Z " fill="#066835" transform="translate(288.6875,201.875)"/>
<path d="M0 0 C0.33 1.65 0.66 3.3 1 5 C-0.11375 4.979375 -1.2275 4.95875 -2.375 4.9375 C-5.83215921 4.73619282 -5.83215921 4.73619282 -8 6 C-8.86159454 9.23097953 -9.30597523 11.22486274 -8.0625 14.375 C-7.711875 14.91125 -7.36125 15.4475 -7 16 C-4.69 16 -2.38 16 0 16 C0.5625 17.9375 0.5625 17.9375 1 20 C-0.65094122 21.65094122 -2.54485937 21.28867693 -4.8125 21.375 C-9.61073809 21.31330837 -9.61073809 21.31330837 -12.5625 18.9375 C-14.27725373 15.43343803 -14.93139633 12.91040913 -15 9 C-11.96992818 0.70717187 -8.21083208 -0.4105416 0 0 Z " fill="#066835" transform="translate(233,250)"/>
<path d="M0 0 C1.65 0 3.3 0 5 0 C5 9.9 5 19.8 5 30 C3.35 30 1.7 30 0 30 C0 20.1 0 10.2 0 0 Z " fill="#066835" transform="translate(487,193)"/>
<path d="M0 0 C3.63 0 7.26 0 11 0 C11 1.65 11 3.3 11 5 C10.360625 5.103125 9.72125 5.20625 9.0625 5.3125 C8.381875 5.539375 7.70125 5.76625 7 6 C5.9458482 9.16245541 5.68724328 11.86948218 5.4375 15.1875 C5.35371094 16.27417969 5.26992188 17.36085937 5.18359375 18.48046875 C5.12300781 19.31191406 5.06242187 20.14335937 5 21 C3.35 21 1.7 21 0 21 C0 14.07 0 7.14 0 0 Z " fill="#066835" transform="translate(49,202)"/>
<path d="M0 0 C3.63 0 7.26 0 11 0 C11 1.65 11 3.3 11 5 C10.360625 5.12375 9.72125 5.2475 9.0625 5.375 C8.381875 5.58125 7.70125 5.7875 7 6 C5.58365167 8.83269666 5.6536995 11.47466438 5.4375 14.625 C5.35371094 15.81351562 5.26992188 17.00203125 5.18359375 18.2265625 C5.12300781 19.14179688 5.06242187 20.05703125 5 21 C3.35 21 1.7 21 0 21 C0 14.07 0 7.14 0 0 Z " fill="#066835" transform="translate(413,250)"/>
<path d="M0 0 C3.63 0 7.26 0 11 0 C11 1.65 11 3.3 11 5 C9.35 5.66 7.7 6.32 6 7 C5.67 11.62 5.34 16.24 5 21 C3.35 21 1.7 21 0 21 C0 14.07 0 7.14 0 0 Z " fill="#066835" transform="translate(103,202)"/>
<path d="M0 0 C2.475 0.495 2.475 0.495 5 1 C7.72502965 0.62277985 7.72502965 0.62277985 10 0 C10.33 1.32 10.66 2.64 11 4 C10.19175781 4.34675781 9.38351562 4.69351563 8.55078125 5.05078125 C5.65620394 6.8234665 5.65620394 6.8234665 5.29296875 10.35546875 C5.24076172 12.25232422 5.24076172 12.25232422 5.1875 14.1875 C5.13980469 15.45980469 5.09210938 16.73210937 5.04296875 18.04296875 C5.02878906 19.01878906 5.01460938 19.99460937 5 21 C3.35 21 1.7 21 0 21 C0 14.07 0 7.14 0 0 Z " fill="#066835" transform="translate(372,250)"/>
<path d="M0 0 C1.65 0 3.3 0 5 0 C5 6.93 5 13.86 5 21 C3.35 21 1.7 21 0 21 C0 14.07 0 7.14 0 0 Z " fill="#066835" transform="translate(384,250)"/>
<path d="M0 0 C1.65 0 3.3 0 5 0 C5 6.93 5 13.86 5 21 C3.35 21 1.7 21 0 21 C0 14.07 0 7.14 0 0 Z " fill="#066835" transform="translate(236,250)"/>
<path d="M0 0 C1.65 0 3.3 0 5 0 C5 6.93 5 13.86 5 21 C3.35 21 1.7 21 0 21 C0 14.07 0 7.14 0 0 Z " fill="#066835" transform="translate(252,202)"/>
<path d="M0 0 C2.475 0.495 2.475 0.495 5 1 C5 7.6 5 14.2 5 21 C3.35 21 1.7 21 0 21 C0 14.07 0 7.14 0 0 Z " fill="#066835" transform="translate(150,202)"/>
<path d="M0 0 C2.475 0.495 2.475 0.495 5 1 C5 7.27 5 13.54 5 20 C3.35 20.33 1.7 20.66 0 21 C0 14.07 0 7.14 0 0 Z " fill="#066835" transform="translate(420,202)"/>
<path d="M0 0 C4.50211214 3.00140809 4.9144402 6.86695566 6 12 C6.75578663 16.53471981 7.05293966 20.19851032 4.67578125 24.265625 C1.06947725 28.64181413 -2.77101632 31.8133341 -8 34 C-12.49518593 33.91009628 -15.29637247 32.43659706 -19 30 C-20.32608822 29.31903578 -21.65686601 28.64669414 -23 28 C-21.375 27.3125 -21.375 27.3125 -19 27 C-13.72413793 29.27586207 -13.72413793 29.27586207 -12 31 C-6.32769976 30.886554 -3.51433332 29.24417542 0.51953125 25.5703125 C2.2127037 23.86204108 2.2127037 23.86204108 4 21 C3.65558384 13.76726069 1.87580573 6.9723345 0 0 Z " fill="#7DAF15" transform="translate(121,29)"/>
<path d="M0 0 C1.63852666 4.02722215 0.23158769 6.62998767 -1.375 10.5 C-3.19516909 14.75365213 -3.19516909 14.75365213 -4.42578125 19.1875 C-5.24304645 21.76716704 -6.73629355 22.80513759 -8.8125 24.5 C-9.53179687 25.10585937 -10.25109375 25.71171875 -10.9921875 26.3359375 C-11.65476562 26.88507813 -12.31734375 27.43421875 -13 28 C-16.2337218 30.67511242 -16.2337218 30.67511242 -17.375 34.5 C-18 37 -18 37 -21.0625 39.3125 C-22.031875 39.869375 -23.00125 40.42625 -24 41 C-22.84826645 38.53199953 -21.95216435 36.95216435 -20 35 C-19.62875 33.9171875 -19.62875 33.9171875 -19.25 32.8125 C-17.78598419 29.51846443 -15.84746223 27.31010364 -13.453125 24.6484375 C-11.88173445 22.9304721 -11.88173445 22.9304721 -10.3125 20.5625 C-9.6628125 19.7890625 -9.6628125 19.7890625 -9 19 C-8.01 19 -7.02 19 -6 19 C-5.9175 18.236875 -5.835 17.47375 -5.75 16.6875 C-4.58331715 10.9513093 -2.62284399 5.24568799 0 0 Z " fill="#75AA17" transform="translate(322,54)"/>
<path d="M0 0 C1.125 3.75 1.125 3.75 0 6 C-0.29539232 9.74353743 -0.27804015 13.49617406 -0.3125 17.25 C-0.34150391 18.28769531 -0.37050781 19.32539062 -0.40039062 20.39453125 C-0.45225385 26.6420557 -0.13100265 30.22811283 4 35 C4.5775 35.78375 5.155 36.5675 5.75 37.375 C6.1625 37.91125 6.575 38.4475 7 39 C3.2655549 38.06638873 2.08700888 37.12181243 -0.1875 33.9375 C-4.72462827 24.95546151 -5.00276551 15.0413019 -2.2578125 5.390625 C-1.57804054 3.56495173 -0.80088737 1.77588069 0 0 Z " fill="#8BB813" transform="translate(297,95)"/>
<path d="M0 0 C0.99 0.33 1.98 0.66 3 1 C1.58367866 2.10460959 0.16692736 3.20866788 -1.25 4.3125 C-2.03890625 4.92738281 -2.8278125 5.54226562 -3.640625 6.17578125 C-4.41921875 6.77777344 -5.1978125 7.37976563 -6 8 C-6.70769531 8.55429688 -7.41539063 9.10859375 -8.14453125 9.6796875 C-10 11 -10 11 -12.4375 11.8125 C-15.07836371 13.03631489 -15.92055018 13.9059189 -17.6875 16.125 C-18.450625 17.07375 -19.21375 18.0225 -20 19 C-20.66 19 -21.32 19 -22 19 C-22.2475 19.598125 -22.495 20.19625 -22.75 20.8125 C-24.24834688 23.43460704 -25.36919648 24.50684125 -28 26 C-31.75 26.6875 -31.75 26.6875 -35 27 C-34.505 25.515 -34.505 25.515 -34 24 C-32.96875 23.979375 -31.9375 23.95875 -30.875 23.9375 C-25.66098619 22.67604505 -24.12907315 20.12548191 -21 16 C-18.51980193 13.27178212 -16.62874307 11.30706057 -13.3125 9.6875 C-9.09885688 7.54092709 -5.83266646 4.63383085 -2.26953125 1.546875 C-1.52058594 1.03640625 -0.77164063 0.5259375 0 0 Z " fill="#88B613" transform="translate(116,132)"/>
<path d="M0 0 C0.66 0.33 1.32 0.66 2 1 C1.19175781 1.72445312 0.38351562 2.44890625 -0.44921875 3.1953125 C-1.52883737 4.17166325 -2.60825365 5.14823777 -3.6875 6.125 C-4.21794922 6.599375 -4.74839844 7.07375 -5.29492188 7.5625 C-7.9479864 9.97141748 -10.37220733 12.37684536 -12.60546875 15.18359375 C-14.86117324 17.83671436 -16.63327128 19.2462994 -19.625 20.9375 C-24.13613644 23.76537657 -25.34084532 26.02253596 -27 31 C-27.66 31.33 -28.32 31.66 -29 32 C-27.65043335 25.67390635 -25.97727102 22.46892346 -20.58984375 18.9375 C-16.28331592 15.71572352 -12.66872198 11.784085 -8.92456055 7.93676758 C-6.0907887 5.03904936 -3.36730005 2.29209781 0 0 Z " fill="#88B612" transform="translate(372,73)"/>
<path d="M0 0 C0.99 0.33 1.98 0.66 3 1 C2.34 1 1.68 1 1 1 C0.34 2.32 -0.32 3.64 -1 5 C-3.16874252 4.49396008 -4.99967627 4.00016187 -7 3 C-7.268125 4.258125 -7.53625 5.51625 -7.8125 6.8125 C-9.1947065 12.27366554 -9.1947065 12.27366554 -12 14 C-13.32 14 -14.64 14 -16 14 C-16.04125 14.5775 -16.0825 15.155 -16.125 15.75 C-17.4473883 19.15042705 -19.94116234 20.1646974 -23 22 C-23.99 22.66 -24.98 23.32 -26 24 C-24.61122646 20.64379729 -23.08322035 18.92701272 -20 17 C-19.34 17 -18.68 17 -18 17 C-17.95875 16.401875 -17.9175 15.80375 -17.875 15.1875 C-17 13 -17 13 -14.125 11.75 C-9.67881776 9.26013794 -9.41431065 6.79294165 -8 2 C-7.05125 2.04125 -6.1025 2.0825 -5.125 2.125 C-1.89755144 2.34973818 -1.89755144 2.34973818 0 0 Z " fill="#80B115" transform="translate(340,105)"/>
<path d="M0 0 C0.66 0.33 1.32 0.66 2 1 C0.13128235 2.92314631 -1.74452468 4.8384057 -3.625 6.75 C-4.14707031 7.28882813 -4.66914063 7.82765625 -5.20703125 8.3828125 C-10.96201269 14.2088431 -17.69660331 18.34830165 -25 22 C-23.53795108 18.1937721 -21.73706832 17.00887884 -18.1875 15.125 C-15.00026069 13.3141725 -12.49415839 11.78872696 -10.25 8.875 C-7.8083689 5.75513804 -5.34166259 4.07925672 -2 2 C-1.34 1.34 -0.68 0.68 0 0 Z " fill="#6AA41A" transform="translate(389,32)"/>
<path d="M0 0 C4.35076298 1.6505657 7.81967956 3.57428446 11 7 C10.67 7.66 10.34 8.32 10 9 C9.2575 8.38125 8.515 7.7625 7.75 7.125 C3.4333271 3.78938912 0.38957187 2.43056743 -5.09765625 2.54296875 C-7.38957397 2.89848624 -7.38957397 2.89848624 -9.4375 5.8125 C-11.04488875 8.91196237 -11.04488875 8.91196237 -12 12 C-12.66 12 -13.32 12 -14 12 C-12.27336824 3.99470728 -9.1162695 -1.39061738 0 0 Z " fill="#91BB10" transform="translate(336,16)"/>
<path d="M0 0 C0.33 0.99 0.66 1.98 1 3 C-0.07356677 4.15498897 -1.15929788 5.29867867 -2.25 6.4375 C-2.85328125 7.07558594 -3.4565625 7.71367188 -4.078125 8.37109375 C-6 10 -6 10 -8.171875 10.53515625 C-9.07679687 10.76525391 -9.07679687 10.76525391 -10 11 C-10.33 11.99 -10.66 12.98 -11 14 C-12.32 13.67 -13.64 13.34 -15 13 C-13.96875 12.319375 -12.9375 11.63875 -11.875 10.9375 C-8.42805112 8.49736783 -5.87788367 5.75020955 -3.26171875 2.453125 C-2 1 -2 1 0 0 Z " fill="#5E9C1D" transform="translate(129,92)"/>
<path d="M0 0 C0 0.66 0 1.32 0 2 C-1.63183107 3.05589069 -3.30792999 4.0436126 -5 5 C-5.99 5.680625 -6.98 6.36125 -8 7.0625 C-11 9 -11 9 -13.5625 10 C-16.50504371 11.20719742 -18.59676187 12.94008161 -21 15 C-21.66 14.67 -22.32 14.34 -23 14 C-18.49701047 9.72558862 -15.02357634 6.79425678 -9 5 C-7.10059754 3.75239249 -5.30777189 2.42002044 -3.515625 1.0234375 C-2 0 -2 0 0 0 Z " fill="#84B314" transform="translate(114,106)"/>
<path d="M0 0 C0.66 0.33 1.32 0.66 2 1 C1.15695312 1.61488281 0.31390625 2.22976562 -0.5546875 2.86328125 C-1.66164811 3.67943017 -2.76840851 4.49585067 -3.875 5.3125 C-4.43058594 5.71662109 -4.98617188 6.12074219 -5.55859375 6.53710938 C-8.2804066 8.55387431 -10.10034104 10.15051156 -12 13 C-13.32 12.67 -14.64 12.34 -16 12 C-16 11.01 -16 10.02 -16 9 C-15.21625 8.814375 -14.4325 8.62875 -13.625 8.4375 C-8.52092787 6.4134714 -4.39631503 3.24945024 0 0 Z " fill="#65A11B" transform="translate(306,62)"/>
<path d="M0 0 C0.33 0 0.66 0 1 0 C1.02578125 1.15757813 1.0515625 2.31515625 1.078125 3.5078125 C1.13443349 5.04691128 1.1917802 6.58597233 1.25 8.125 C1.26417969 8.88554688 1.27835937 9.64609375 1.29296875 10.4296875 C1.52122854 15.72531453 2.60984086 18.73661806 6 23 C6.5775 23.78375 7.155 24.5675 7.75 25.375 C8.1625 25.91125 8.575 26.4475 9 27 C5.30741519 26.0768538 4.09901657 25.13776219 1.84375 22 C-0.56612999 17.56725717 -0.45698552 13.50228899 -0.25 8.5625 C-0.23195313 7.73556641 -0.21390625 6.90863281 -0.1953125 6.05664062 C-0.1486214 4.03725067 -0.07689393 2.01846555 0 0 Z " fill="#2B7E2A" transform="translate(295,107)"/>
<path d="M0 0 C1.6763137 3.35262739 1.00709955 5.445531 0 9 C-1.87123336 10.80715002 -3.8282818 12.19806842 -5.98828125 13.64453125 C-8.28000567 15.18866401 -10.12877987 16.97284486 -12 19 C-10.98789789 15.17650315 -9.45488538 13.38670237 -6.4375 11 C-3.54827261 8.71366718 -3.54827261 8.71366718 -2.1875 5.3125 C-2.125625 4.549375 -2.06375 3.78625 -2 3 C-1.34 2.01 -0.68 1.02 0 0 Z " fill="#7EB015" transform="translate(29,63)"/>
<path d="M0 0 C1.98 0 3.96 0 6 0 C4.79618552 2.49361571 3.54571278 4.68143083 2 7 C-0.625 7.1875 -0.625 7.1875 -3 7 C-2.01 4.69 -1.02 2.38 0 0 Z " fill="#066835" transform="translate(253,242)"/>
<path d="M0 0 C0.66 0.33 1.32 0.66 2 1 C0.625 2.5 0.625 2.5 -1 4 C-1.66 4 -2.32 4 -3 4 C-3.2475 4.598125 -3.495 5.19625 -3.75 5.8125 C-5.24834688 8.43460704 -6.36919648 9.50684125 -9 11 C-12.75 11.6875 -12.75 11.6875 -16 12 C-15.67 11.01 -15.34 10.02 -15 9 C-13.96875 8.979375 -12.9375 8.95875 -11.875 8.9375 C-7.22921708 7.81352026 -6.02720666 6.29116945 -3.26171875 2.59375 C-2 1 -2 1 0 0 Z " fill="#96BE10" transform="translate(97,147)"/>
<path d="M0 0 C1.2065625 0.0309375 1.2065625 0.0309375 2.4375 0.0625 C1.23368552 2.55611571 -0.01678722 4.74393083 -1.5625 7.0625 C-2.8825 7.0625 -4.2025 7.0625 -5.5625 7.0625 C-3.33446653 0.08132845 -3.33446653 0.08132845 0 0 Z " fill="#066835" transform="translate(169.5625,193.9375)"/>
<path d="M0 0 C4.77368582 0.45900825 7.2355244 1.1766433 11 4 C14.65274469 4.72481084 14.65274469 4.72481084 18 5 C15 7 15 7 12.125 6.8125 C8.90796582 5.97607111 6.76154246 4.81680425 4 3 C2.67391178 2.31903578 1.34313399 1.64669414 0 1 C0 0.67 0 0.34 0 0 Z " fill="#8CB812" transform="translate(98,56)"/>
<path d="M0 0 C0.66 0.33 1.32 0.66 2 1 C-3.55194659 4.55506117 -9.20909522 7.84985504 -15 11 C-13.50141723 6.55354718 -10.51178107 5.29546019 -6.5 3.1875 C-5.60861328 2.70120117 -5.60861328 2.70120117 -4.69921875 2.20507812 C-3.16854404 1.3982778 -1.58636235 0.69090255 0 0 Z " fill="#82B214" transform="translate(393,57)"/>
<path d="M0 0 C0.66 0.33 1.32 0.66 2 1 C-0.97 4.63 -3.94 8.26 -7 12 C-7.66 11.67 -8.32 11.34 -9 11 C-8.06981474 9.53699018 -7.13055973 8.07974421 -6.1875 6.625 C-5.66542969 5.81289062 -5.14335937 5.00078125 -4.60546875 4.1640625 C-3 2 -3 2 0 0 Z " fill="#67A21B" transform="translate(475,75)"/>
<path d="M0 0 C1.32 0.66 2.64 1.32 4 2 C3.67 3.32 3.34 4.64 3 6 C1.35 5.67 -0.3 5.34 -2 5 C-1.125 1.125 -1.125 1.125 0 0 Z " fill="#066835" transform="translate(421,194)"/>
<path d="M0 0 C1.32 0.66 2.64 1.32 4 2 C3.67 3.32 3.34 4.64 3 6 C1.35 5.67 -0.3 5.34 -2 5 C-1.125 1.125 -1.125 1.125 0 0 Z " fill="#066835" transform="translate(253,194)"/>
<path d="M0 0 C1.32 0.66 2.64 1.32 4 2 C3.67 3.32 3.34 4.64 3 6 C1.35 5.67 -0.3 5.34 -2 5 C-1.125 1.125 -1.125 1.125 0 0 Z " fill="#066835" transform="translate(151,194)"/>
<path d="M0 0 C1.32 0.66 2.64 1.32 4 2 C3.67 3.32 3.34 4.64 3 6 C1.35 5.67 -0.3 5.34 -2 5 C-1.125 1.125 -1.125 1.125 0 0 Z " fill="#066835" transform="translate(386,242)"/>
<path d="M0 0 C0.99 0.33 1.98 0.66 3 1 C3 2.65 3 4.3 3 6 C1.35 6 -0.3 6 -2 6 C-2 4.35 -2 2.7 -2 1 C-1.34 0.67 -0.68 0.34 0 0 Z " fill="#066835" transform="translate(238,242)"/>
<path d="M0 0 C2.22189824 2.22189824 2.92598892 4.08482708 4 7 C5.98 7 7.96 7 10 7 C8.8125 8.5625 8.8125 8.5625 7 10 C4.4375 10 4.4375 10 2 9 C0.13992075 5.72271751 0 3.8340246 0 0 Z " fill="#74A917" transform="translate(437,98)"/>
<path d="M0 0 C0.66 0 1.32 0 2 0 C1.731875 0.515625 1.46375 1.03125 1.1875 1.5625 C-0.32349407 4.66401415 -1.65572726 7.82262806 -3 11 C-3.66 11 -4.32 11 -5 11 C-3.04225352 3.16901408 -3.04225352 3.16901408 0 0 Z " fill="#74AA17" transform="translate(327,17)"/>
<path d="M0 0 C0 3 0 3 -2.3125 5.6875 C-5 8 -5 8 -8 8 C-5.36 5.36 -2.72 2.72 0 0 Z " fill="#97BF10" transform="translate(50,42)"/>
<path d="M0 0 C0.66 0.33 1.32 0.66 2 1 C-3.29230769 5.92307692 -3.29230769 5.92307692 -6.875 6.3125 C-7.926875 6.1578125 -7.926875 6.1578125 -9 6 C-8.443125 5.7525 -7.88625 5.505 -7.3125 5.25 C-4.60028873 3.78393985 -2.36412635 1.97010529 0 0 Z " fill="#8EBA10" transform="translate(448,130)"/>
<path d="M0 0 C0 0.99 0 1.98 0 3 C-0.99 3.33 -1.98 3.66 -3 4 C-3.33 4.99 -3.66 5.98 -4 7 C-5.32 6.67 -6.64 6.34 -8 6 C-5.36 4.02 -2.72 2.04 0 0 Z " fill="#83B314" transform="translate(485,68)"/>
<path d="M0 0 C0 0.99 0 1.98 0 3 C-3 5.1875 -3 5.1875 -6 7 C-6.66 6.67 -7.32 6.34 -8 6 C-5.36 4.02 -2.72 2.04 0 0 Z " fill="#88B612" transform="translate(321,28)"/>
<path d="M0 0 C3.7952131 1.49097658 5.61042731 3.75700849 8 7 C4.59679258 5.98823563 3.24274669 5.35156418 1.1875 2.375 C0.795625 1.59125 0.40375 0.8075 0 0 Z " fill="#88B512" transform="translate(296,127)"/>
</svg>
